<?xml version="1.0" encoding="utf-8"?>
<svg viewBox="14.611 26.846 411.601 141.404" xmlns="http://www.w3.org/2000/svg" xmlns:bx="https://boxy-svg.com">
  <rect x="137.719" y="67.313" width="70.796" height="50.841" style="fill: rgb(216, 216, 216); stroke: rgb(0, 0, 0);"/>
  <text style="white-space: pre; fill: rgb(51, 51, 51); font-family: Arial, sans-serif; font-size: 11.1px;" x="142.855" y="97.389">Login nodes</text>
  <g>
    <g transform="matrix(1, 0, 0, 1, -13.394732, -15.930734)">
      <ellipse style="fill: rgb(216, 216, 216); stroke: rgb(0, 0, 0);" cx="45.239" cy="50.858" rx="7.269" ry="7.269"/>
      <rect x="36.384" y="59.371" width="18.009" height="20.352" style="fill: rgb(216, 216, 216); stroke: rgb(0, 0, 0);"/>
    </g>
    <text style="fill: rgb(51, 51, 51); font-family: Arial, sans-serif; font-size: 7.1px; white-space: pre; opacity: 1;" x="23.589" y="70.92">User</text>
  </g>
  <path d="M 46.179 48.011 H 129.781 L 129.781 45.511 L 139.781 50.511 L 129.781 55.511 L 129.781 53.011 H 46.179 V 48.011 Z" style="fill: rgb(216, 216, 216); stroke: rgb(0, 0, 0);" transform="matrix(-0.961282, -0.275566, 0.275566, -0.961282, 166.562881, 137.812775)" bx:shape="arrow 46.179 45.511 93.602 10 5 10 0 1@eab47505"/>
  <text style="white-space: pre; fill: rgb(51, 51, 51); font-family: Arial, sans-serif; font-size: 11.1px;" x="74.144" y="54.155" transform="matrix(0.951057, 0.309017, -0.309017, 0.951057, 11.531202, -24.939377)">Job results</text>
  <g transform="matrix(1, 0, 0, 1, 89.243011, 1.620239)">
    <rect x="271.757" y="29.34" width="62.376" height="20.993" style="fill: rgb(216, 216, 216); stroke: rgb(0, 0, 0);"/>
    <text style="fill: rgb(51, 51, 51); font-family: Arial, sans-serif; font-size: 8px; white-space: pre;" x="275.871" y="42.659">Compute node</text>
  </g>
  <text style="white-space: pre; fill: rgb(51, 51, 51); font-family: Arial, sans-serif; font-size: 11.1px;" x="423.124" y="75.708"> </text>
  <g transform="matrix(1, 0, 0, 1, 89.243011, 24.536068)">
    <rect x="271.757" y="29.34" width="62.376" height="20.993" style="fill: rgb(216, 216, 216); stroke: rgb(0, 0, 0);"/>
    <text style="fill: rgb(51, 51, 51); font-family: Arial, sans-serif; font-size: 8px; white-space: pre;" x="275.871" y="42.659">Compute node</text>
  </g>
  <text style="fill: rgb(51, 51, 51); font-family: Arial, sans-serif; font-size: 20px; white-space: pre;" x="382.348" y="130.822">...</text>
  <g transform="matrix(1, 0, 0, 1, 89.243011, 47.515968)">
    <rect x="271.757" y="29.34" width="62.376" height="20.993" style="fill: rgb(216, 216, 216); stroke: rgb(0, 0, 0);"/>
    <text style="fill: rgb(51, 51, 51); font-family: Arial, sans-serif; font-size: 8px; white-space: pre;" x="275.871" y="42.659">Compute node</text>
  </g>
  <g transform="matrix(1, 0, 0, 1, 89.243011, 70.660004)">
    <rect x="271.757" y="29.34" width="62.376" height="20.993" style="fill: rgb(216, 216, 216); stroke: rgb(0, 0, 0);"/>
    <text style="fill: rgb(51, 51, 51); font-family: Arial, sans-serif; font-size: 8px; white-space: pre;" x="275.871" y="42.659">Compute node</text>
  </g>
  <text style="white-space: pre; fill: rgb(51, 51, 51); font-family: Arial, sans-serif; font-size: 7.8px;" x="171.093" y="163.064"> </text>
  <g transform="matrix(1, 0, 0, 1, 89.243011, 108.725357)">
    <rect x="271.757" y="29.34" width="62.376" height="20.993" style="fill: rgb(216, 216, 216); stroke: rgb(0, 0, 0);"/>
    <text style="fill: rgb(51, 51, 51); font-family: Arial, sans-serif; font-size: 8px; white-space: pre;" x="275.871" y="42.659">Compute node</text>
  </g>
  <path fill="rgb(255,0,0)" stroke="rgb(255,0,0)" stroke-width="0" d="M 259.612 42.605 C 261.712 42.07 263.57 42.369 265.49 42.605 C 267.395 42.839 268.579 43.127 271.088 44.004 C 275.068 45.396 284.16 49.074 287.882 51.282 C 290.32 52.729 291.343 53.53 292.78 55.341 C 294.441 57.434 295.807 60.379 296.979 63.458 C 298.292 66.908 299.534 71.814 300.058 75.214 C 300.485 77.984 300.658 79.957 300.338 82.491 C 299.989 85.254 299.16 88.676 297.819 91.168 C 296.545 93.535 294.048 95.921 292.64 97.186 C 291.708 98.024 290.855 97.461 290.261 98.726 C 289.026 101.355 290.287 111.86 289.142 116.36 C 288.276 119.759 286.69 122.132 285.223 124.197 C 283.984 125.94 283.047 126.883 281.164 128.256 C 278.654 130.086 274.376 132.691 270.808 133.854 C 267.37 134.974 263.56 135.378 260.171 135.253 C 256.951 135.134 253.973 134.576 250.935 133.294 C 247.621 131.896 244.355 128.199 241.138 126.856 C 238.301 125.672 235.93 126.346 232.741 125.177 C 228.63 123.67 221.74 119.824 218.466 117.619 C 216.241 116.121 215.051 115.078 213.847 113.561 C 212.706 112.122 211.848 110.608 211.328 108.802 C 210.759 106.826 210.329 104.429 210.768 102.085 C 211.267 99.422 214.662 96.074 214.687 93.687 C 214.708 91.731 212.73 90.589 212.168 88.649 C 211.535 86.462 211.328 83.611 211.328 81.092 C 211.328 78.573 211.399 75.953 212.168 73.534 C 212.958 71.049 214.739 68.023 216.087 66.397 C 217.09 65.187 218.354 65.149 219.165 64.018 C 220.109 62.702 220.149 60.333 221.125 58.699 C 222.133 57.012 224.045 55.143 225.183 54.081 C 225.991 53.328 226.676 53.148 227.283 52.542 C 227.889 51.935 227.997 51.196 228.822 50.442 C 230.025 49.344 232.227 47.519 234.42 46.804 C 236.826 46.018 240.197 45.883 242.817 46.244 C 245.312 46.587 248.375 49.033 249.815 48.763 C 250.758 48.586 250.531 47.528 251.494 46.804 C 253.091 45.601 257.106 43.243 259.612 42.605 Z" style="fill: rgb(166, 209, 48); stroke: rgb(129, 151, 57); stroke-width: 2px;"/>
  <text style="white-space: pre; fill: rgb(51, 51, 51); font-family: Arial, sans-serif; font-size: 11.1px;" x="236.573" y="62.488">Queue</text>
  <text style="white-space: pre; fill: rgb(51, 51, 51); font-family: Arial, sans-serif; font-size: 7.8px;" x="218.8" y="165.721"> </text>
  <text style="white-space: pre; fill: rgb(51, 51, 51); font-family: Arial, sans-serif; font-size: 7.8px;" x="206.542" y="33.844"> </text>
  <text style="fill: rgb(51, 51, 51); font-family: Arial, sans-serif; font-size: 37px; white-space: pre;" x="343.688" y="64.79">{</text>
  <path d="M 303.074 67.509 H 334.978 L 334.978 65.009 L 344.978 70.009 L 334.978 75.009 L 334.978 72.509 H 303.074 V 67.509 Z" style="fill: rgb(216, 216, 216); stroke: rgb(0, 0, 0);" transform="matrix(-0.939708, 0.341978, -0.341978, -0.939708, 651.186401, 17.801386)" bx:shape="arrow 303.074 65.009 41.904 10 5 10 0 1@b87be30e"/>
  <text style="white-space: pre; fill: rgb(51, 51, 51); font-family: Arial, sans-serif; font-size: 7.8px;" x="304.907" y="54.129" transform="matrix(0.945518, -0.325569, 0.325569, 0.945518, -6.631276, 112.748177)">Job (2 nodes)</text>
  <path d="M 305.087 85.763 H 345.592 L 345.592 83.263 L 355.592 88.263 L 345.592 93.263 L 345.592 90.763 H 305.087 V 85.763 Z" style="fill: rgb(216, 216, 216); stroke: rgb(0, 0, 0);" transform="matrix(-1, 0.000044, -0.000044, -1, 660.66748, 177.383026)" bx:shape="arrow 305.087 83.263 50.505 10 5 10 0 1@895cec0a"/>
  <text style="white-space: pre; fill: rgb(51, 51, 51); font-family: Arial, sans-serif; font-size: 7.8px;" x="317.578" y="82.583" transform="matrix(0.999391, 0.034899, -0.034899, 0.999391, 2.986597, -9.254035)">Job</text>
  <path d="M 296.883 105.822 H 347 L 347 103.322 L 357 108.322 L 347 113.322 L 347 110.822 H 296.883 V 105.822 Z" style="fill: rgb(216, 216, 216); stroke: rgb(0, 0, 0);" transform="matrix(-1, -0.000072, 0.000072, -1, 653.809143, 218.661942)" bx:shape="arrow 296.883 103.322 60.117 10 5 10 0 1@b2cb81b2"/>
  <text style="white-space: pre; fill: rgb(51, 51, 51); font-family: Arial, sans-serif; font-size: 7.8px;" x="308.907" y="101.579" transform="matrix(0.999391, 0.034899, -0.034899, 0.999391, 7.896365, -6.607272)">Job</text>
  <path d="M 289.513 126.261 H 349.047 L 349.047 123.761 L 359.047 128.761 L 349.047 133.761 L 349.047 131.261 H 289.513 V 126.261 Z" style="fill: rgb(216, 216, 216); stroke: rgb(0, 0, 0);" transform="matrix(-0.96593, -0.258804, 0.258804, -0.96593, 602.496094, 347.774445)" bx:shape="arrow 289.513 123.761 69.534 10 5 10 0 1@99f4de0d"/>
  <text style="white-space: pre; fill: rgb(51, 51, 51); font-family: Arial, sans-serif; font-size: 7.8px;" x="308.907" y="101.579" transform="matrix(0.939693, 0.34202, -0.34202, 0.939693, 53.989841, -71.175591)">Job</text>
  <text style="fill: rgb(51, 51, 51); font-family: Arial, sans-serif; font-size: 20px; white-space: pre;" x="306.113" y="121.024">...</text>
  <text style="white-space: pre; fill: rgb(51, 51, 51); font-family: Arial, sans-serif; font-size: 7.8px;" x="230.276" y="78.539">Writes results, <tspan x="230.2760009765625" dy="1em">​</tspan>sends emails</text>
  <rect x="302.235" y="42.579" width="43.445" height="116.379" style="stroke: rgb(0, 0, 0); fill: rgb(255, 13, 13);"/>
  <text style="fill: rgb(51, 51, 51); font-family: Arial, sans-serif; font-size: 18px; white-space: pre;" transform="matrix(0, 1, -1, 0, 450.482605, -35.017879)" x="87.978" y="133.129">FIREWALL!</text>
</svg>