<?xml version="1.0" encoding="utf-8"?>
<svg viewBox="0 0 309 350" xmlns="http://www.w3.org/2000/svg" xmlns:bx="https://boxy-svg.com">
  <g transform="matrix(1, 0, 0, 1, -46, -32.18993)">
    <g>
      <rect x="50" y="50" width="140" height="150" rx="8" ry="8" style="fill: rgb(216, 216, 216); stroke: rgb(0, 0, 0);"/>
      <rect x="60" y="60" width="15" height="130" rx="5" ry="5" style="stroke: rgb(0, 0, 0); fill: rgb(228, 236, 235);"/>
      <rect x="130" y="60" width="15" height="55" rx="5" ry="5" style="stroke: rgb(0, 0, 0); fill: rgb(228, 236, 235);"/>
      <rect x="95" y="60" width="15" height="130" rx="5" ry="5" style="stroke: rgb(0, 0, 0); fill: rgb(228, 236, 235);"/>
      <rect x="165" y="60" width="15" height="130" rx="5" ry="5" style="stroke: rgb(0, 0, 0); fill: rgb(228, 236, 235);"/>
      <rect x="130" y="135" width="15" height="55" rx="5" ry="5" style="stroke: rgb(0, 0, 0); fill: rgb(228, 236, 235);"/>
      <path d="M 80 121.25 H 87.965 L 87.965 120 L 90 122.5 L 87.965 125 L 87.965 123.75 H 80 V 121.25 Z" style="fill: rgb(216, 216, 216); stroke: rgb(0, 0, 0);" bx:shape="arrow 80 120 10 5 2.5 2.035 0 1@d85637c5"/>
      <path d="M 115 86.25 H 122.965 L 122.965 85 L 125 87.5 L 122.965 90 L 122.965 88.75 H 115 V 86.25 Z" style="fill: rgb(216, 216, 216); stroke: rgb(0, 0, 0);" bx:shape="arrow 115 85 10 5 2.5 2.035 0 1@c599ae12"/>
      <path d="M 150 161.25 H 157.965 L 157.965 160 L 160 162.5 L 157.965 165 L 157.965 163.75 H 150 V 161.25 Z" style="fill: rgb(216, 216, 216); stroke: rgb(0, 0, 0);" bx:shape="arrow 150 160 10 5 2.5 2.035 0 1@6a9853e1"/>
      <path d="M 115 86.25 H 122.965 L 122.965 85 L 125 87.5 L 122.965 90 L 122.965 88.75 H 115 V 86.25 Z" style="fill: rgb(216, 216, 216); stroke: rgb(0, 0, 0);" transform="matrix(0, 1, -1, 0, 224.661972, 5)" bx:shape="arrow 115 85 10 5 2.5 2.035 0 1@c599ae12"/>
    </g>
    <text style="white-space: pre; fill: rgb(51, 51, 51); font-family: Arial, sans-serif; font-size: 13.3px;" x="100.045" y="46.212">GPU 0</text>
  </g>
  <g transform="matrix(1, 0, 0, 1, 114, -32.18993)">
    <g>
      <rect x="50" y="50" width="140" height="150" rx="8" ry="8" style="fill: rgb(216, 216, 216); stroke: rgb(0, 0, 0);"/>
      <rect x="60" y="60" width="15" height="130" rx="5" ry="5" style="stroke: rgb(0, 0, 0); fill: rgb(228, 236, 235);"/>
      <rect x="130" y="60" width="15" height="55" rx="5" ry="5" style="stroke: rgb(0, 0, 0); fill: rgb(228, 236, 235);"/>
      <rect x="95" y="60" width="15" height="130" rx="5" ry="5" style="stroke: rgb(0, 0, 0); fill: rgb(228, 236, 235);"/>
      <rect x="165" y="60" width="15" height="130" rx="5" ry="5" style="stroke: rgb(0, 0, 0); fill: rgb(228, 236, 235);"/>
      <rect x="130" y="135" width="15" height="55" rx="5" ry="5" style="stroke: rgb(0, 0, 0); fill: rgb(228, 236, 235);"/>
      <path d="M 80 121.25 H 87.965 L 87.965 120 L 90 122.5 L 87.965 125 L 87.965 123.75 H 80 V 121.25 Z" style="fill: rgb(216, 216, 216); stroke: rgb(0, 0, 0);" bx:shape="arrow 80 120 10 5 2.5 2.035 0 1@d85637c5"/>
      <path d="M 115 86.25 H 122.965 L 122.965 85 L 125 87.5 L 122.965 90 L 122.965 88.75 H 115 V 86.25 Z" style="fill: rgb(216, 216, 216); stroke: rgb(0, 0, 0);" bx:shape="arrow 115 85 10 5 2.5 2.035 0 1@c599ae12"/>
      <path d="M 150 161.25 H 157.965 L 157.965 160 L 160 162.5 L 157.965 165 L 157.965 163.75 H 150 V 161.25 Z" style="fill: rgb(216, 216, 216); stroke: rgb(0, 0, 0);" bx:shape="arrow 150 160 10 5 2.5 2.035 0 1@6a9853e1"/>
      <path d="M 115 86.25 H 122.965 L 122.965 85 L 125 87.5 L 122.965 90 L 122.965 88.75 H 115 V 86.25 Z" style="fill: rgb(216, 216, 216); stroke: rgb(0, 0, 0);" transform="matrix(0, 1, -1, 0, 224.661972, 5)" bx:shape="arrow 115 85 10 5 2.5 2.035 0 1@c599ae12"/>
    </g>
    <text style="white-space: pre; fill: rgb(51, 51, 51); font-family: Arial, sans-serif; font-size: 13.3px;" x="100.045" y="46.212">GPU 1</text>
  </g>
  <g transform="matrix(1, 0, 0, 1, 114, 142.810074)">
    <g>
      <rect x="50" y="50" width="140" height="150" rx="8" ry="8" style="fill: rgb(216, 216, 216); stroke: rgb(0, 0, 0);"/>
      <rect x="60" y="60" width="15" height="130" rx="5" ry="5" style="stroke: rgb(0, 0, 0); fill: rgb(228, 236, 235);"/>
      <rect x="130" y="60" width="15" height="55" rx="5" ry="5" style="stroke: rgb(0, 0, 0); fill: rgb(228, 236, 235);"/>
      <rect x="95" y="60" width="15" height="130" rx="5" ry="5" style="stroke: rgb(0, 0, 0); fill: rgb(228, 236, 235);"/>
      <rect x="165" y="60" width="15" height="130" rx="5" ry="5" style="stroke: rgb(0, 0, 0); fill: rgb(228, 236, 235);"/>
      <rect x="130" y="135" width="15" height="55" rx="5" ry="5" style="stroke: rgb(0, 0, 0); fill: rgb(228, 236, 235);"/>
      <path d="M 80 121.25 H 87.965 L 87.965 120 L 90 122.5 L 87.965 125 L 87.965 123.75 H 80 V 121.25 Z" style="fill: rgb(216, 216, 216); stroke: rgb(0, 0, 0);" bx:shape="arrow 80 120 10 5 2.5 2.035 0 1@d85637c5"/>
      <path d="M 115 86.25 H 122.965 L 122.965 85 L 125 87.5 L 122.965 90 L 122.965 88.75 H 115 V 86.25 Z" style="fill: rgb(216, 216, 216); stroke: rgb(0, 0, 0);" bx:shape="arrow 115 85 10 5 2.5 2.035 0 1@c599ae12"/>
      <path d="M 150 161.25 H 157.965 L 157.965 160 L 160 162.5 L 157.965 165 L 157.965 163.75 H 150 V 161.25 Z" style="fill: rgb(216, 216, 216); stroke: rgb(0, 0, 0);" bx:shape="arrow 150 160 10 5 2.5 2.035 0 1@6a9853e1"/>
      <path d="M 115 86.25 H 122.965 L 122.965 85 L 125 87.5 L 122.965 90 L 122.965 88.75 H 115 V 86.25 Z" style="fill: rgb(216, 216, 216); stroke: rgb(0, 0, 0);" transform="matrix(0, 1, -1, 0, 224.661972, 5)" bx:shape="arrow 115 85 10 5 2.5 2.035 0 1@c599ae12"/>
    </g>
    <text style="white-space: pre; fill: rgb(51, 51, 51); font-family: Arial, sans-serif; font-size: 13.3px;" x="100.045" y="46.212">GPU 3</text>
  </g>
  <g transform="matrix(1, 0, 0, 1, -46, 142.810074)">
    <g>
      <rect x="50" y="50" width="140" height="150" rx="8" ry="8" style="fill: rgb(216, 216, 216); stroke: rgb(0, 0, 0);"/>
      <rect x="60" y="60" width="15" height="130" rx="5" ry="5" style="stroke: rgb(0, 0, 0); fill: rgb(228, 236, 235);"/>
      <rect x="130" y="60" width="15" height="55" rx="5" ry="5" style="stroke: rgb(0, 0, 0); fill: rgb(228, 236, 235);"/>
      <rect x="95" y="60" width="15" height="130" rx="5" ry="5" style="stroke: rgb(0, 0, 0); fill: rgb(228, 236, 235);"/>
      <rect x="165" y="60" width="15" height="130" rx="5" ry="5" style="stroke: rgb(0, 0, 0); fill: rgb(228, 236, 235);"/>
      <rect x="130" y="135" width="15" height="55" rx="5" ry="5" style="stroke: rgb(0, 0, 0); fill: rgb(228, 236, 235);"/>
      <path d="M 80 121.25 H 87.965 L 87.965 120 L 90 122.5 L 87.965 125 L 87.965 123.75 H 80 V 121.25 Z" style="fill: rgb(216, 216, 216); stroke: rgb(0, 0, 0);" bx:shape="arrow 80 120 10 5 2.5 2.035 0 1@d85637c5"/>
      <path d="M 115 86.25 H 122.965 L 122.965 85 L 125 87.5 L 122.965 90 L 122.965 88.75 H 115 V 86.25 Z" style="fill: rgb(216, 216, 216); stroke: rgb(0, 0, 0);" bx:shape="arrow 115 85 10 5 2.5 2.035 0 1@c599ae12"/>
      <path d="M 150 161.25 H 157.965 L 157.965 160 L 160 162.5 L 157.965 165 L 157.965 163.75 H 150 V 161.25 Z" style="fill: rgb(216, 216, 216); stroke: rgb(0, 0, 0);" bx:shape="arrow 150 160 10 5 2.5 2.035 0 1@6a9853e1"/>
      <path d="M 115 86.25 H 122.965 L 122.965 85 L 125 87.5 L 122.965 90 L 122.965 88.75 H 115 V 86.25 Z" style="fill: rgb(216, 216, 216); stroke: rgb(0, 0, 0);" transform="matrix(0, 1, -1, 0, 224.661972, 5)" bx:shape="arrow 115 85 10 5 2.5 2.035 0 1@c599ae12"/>
    </g>
    <text style="white-space: pre; fill: rgb(51, 51, 51); font-family: Arial, sans-serif; font-size: 13.3px;" x="100.045" y="46.212">GPU 2</text>
  </g>
  <g transform="matrix(1, 0, 0, 1, 0.818458, -1.153332)"/>
  <g transform="matrix(1, 0, 0, 1, -0.386501, -4.220928)">
    <rect x="26.188" y="66.227" width="96.397" height="61.608" rx="5" ry="5" style="stroke: rgb(0, 0, 0); fill: rgb(255, 185, 185);"/>
    <text style="white-space: pre; fill: rgb(51, 51, 51); font-family: Arial, sans-serif; font-size: 9.3px;" x="58.618" y="100.183">Batch 0</text>
  </g>
  <g transform="matrix(1, 0, 0, 1, -0.386501, 170.779068)">
    <rect x="26.188" y="66.227" width="96.397" height="61.608" rx="5" ry="5" style="stroke: rgb(0, 0, 0); fill: rgb(185, 221, 255);"/>
    <text style="fill: rgb(51, 51, 51); font-family: Arial, sans-serif; font-size: 9.3px; white-space: pre;" x="58.618" y="100.183">Batch 2</text>
  </g>
  <g transform="matrix(1, 0, 0, 1, 154.900497, 13.876066)">
    <rect x="30.901" y="48.13" width="96.397" height="61.608" rx="5" ry="5" style="stroke: rgb(0, 0, 0); fill: rgb(204, 255, 185);"/>
    <text style="white-space: pre; fill: rgb(51, 51, 51); font-family: Arial, sans-serif; font-size: 9.3px;" x="63.331" y="82.086">Batch 1</text>
  </g>
  <g transform="matrix(1, 0, 0, 1, 159.613495, 170.779068)">
    <rect x="26.188" y="66.227" width="96.397" height="61.608" rx="5" ry="5" style="stroke: rgb(0, 0, 0); fill: rgb(252, 185, 255);"/>
    <text style="font-family: Arial, sans-serif; font-size: 9.3px; white-space: pre;" x="58.618" y="100.183">Batch 3</text>
  </g>
</svg>