<?xml version="1.0" encoding="utf-8"?>
<svg viewBox="0 0 309 350" xmlns="http://www.w3.org/2000/svg" xmlns:bx="https://boxy-svg.com">
  <g transform="matrix(1, 0, 0, 1, -46, -32.18993)">
    <g>
      <rect x="50" y="50" width="140" height="150" rx="8" ry="8" style="fill: rgb(216, 216, 216); stroke: rgb(0, 0, 0);"/>
      <rect x="60" y="60" width="15" height="130" rx="5" ry="5" style="stroke: rgb(0, 0, 0); fill: rgb(228, 236, 235);"/>
      <rect x="130" y="60" width="15" height="55" rx="5" ry="5" style="stroke: rgb(0, 0, 0); fill: rgb(228, 236, 235);"/>
      <rect x="95" y="60" width="15" height="130" rx="5" ry="5" style="stroke: rgb(0, 0, 0); fill: rgb(228, 236, 235);"/>
      <rect x="165" y="60" width="15" height="130" rx="5" ry="5" style="stroke: rgb(0, 0, 0); fill: rgb(228, 236, 235);"/>
      <rect x="130" y="135" width="15" height="55" rx="5" ry="5" style="stroke: rgb(0, 0, 0); fill: rgb(228, 236, 235);"/>
      <path d="M 80 121.25 H 87.965 L 87.965 120 L 90 122.5 L 87.965 125 L 87.965 123.75 H 80 V 121.25 Z" style="fill: rgb(216, 216, 216); stroke: rgb(0, 0, 0);" bx:shape="arrow 80 120 10 5 2.5 2.035 0 1@d85637c5"/>
      <path d="M 115 86.25 H 122.965 L 122.965 85 L 125 87.5 L 122.965 90 L 122.965 88.75 H 115 V 86.25 Z" style="fill: rgb(216, 216, 216); stroke: rgb(0, 0, 0);" bx:shape="arrow 115 85 10 5 2.5 2.035 0 1@c599ae12"/>
      <path d="M 150 161.25 H 157.965 L 157.965 160 L 160 162.5 L 157.965 165 L 157.965 163.75 H 150 V 161.25 Z" style="fill: rgb(216, 216, 216); stroke: rgb(0, 0, 0);" bx:shape="arrow 150 160 10 5 2.5 2.035 0 1@6a9853e1"/>
      <path d="M 115 86.25 H 122.965 L 122.965 85 L 125 87.5 L 122.965 90 L 122.965 88.75 H 115 V 86.25 Z" style="fill: rgb(216, 216, 216); stroke: rgb(0, 0, 0);" transform="matrix(0, 1, -1, 0, 224.661972, 5)" bx:shape="arrow 115 85 10 5 2.5 2.035 0 1@c599ae12"/>
    </g>
    <text style="white-space: pre; fill: rgb(51, 51, 51); font-family: Arial, sans-serif; font-size: 13.3px;" x="100.045" y="46.212">GPU 0</text>
  </g>
  <g transform="matrix(1, 0, 0, 1, 114, -32.18993)">
    <g>
      <rect x="50" y="50" width="140" height="150" rx="8" ry="8" style="fill: rgb(216, 216, 216); stroke: rgb(0, 0, 0);"/>
      <rect x="60" y="60" width="15" height="130" rx="5" ry="5" style="stroke: rgb(0, 0, 0); fill: rgb(228, 236, 235);"/>
      <rect x="130" y="60" width="15" height="55" rx="5" ry="5" style="stroke: rgb(0, 0, 0); fill: rgb(228, 236, 235);"/>
      <rect x="95" y="60" width="15" height="130" rx="5" ry="5" style="stroke: rgb(0, 0, 0); fill: rgb(228, 236, 235);"/>
      <rect x="165" y="60" width="15" height="130" rx="5" ry="5" style="stroke: rgb(0, 0, 0); fill: rgb(228, 236, 235);"/>
      <rect x="130" y="135" width="15" height="55" rx="5" ry="5" style="stroke: rgb(0, 0, 0); fill: rgb(228, 236, 235);"/>
      <path d="M 80 121.25 H 87.965 L 87.965 120 L 90 122.5 L 87.965 125 L 87.965 123.75 H 80 V 121.25 Z" style="fill: rgb(216, 216, 216); stroke: rgb(0, 0, 0);" bx:shape="arrow 80 120 10 5 2.5 2.035 0 1@d85637c5"/>
      <path d="M 115 86.25 H 122.965 L 122.965 85 L 125 87.5 L 122.965 90 L 122.965 88.75 H 115 V 86.25 Z" style="fill: rgb(216, 216, 216); stroke: rgb(0, 0, 0);" bx:shape="arrow 115 85 10 5 2.5 2.035 0 1@c599ae12"/>
      <path d="M 150 161.25 H 157.965 L 157.965 160 L 160 162.5 L 157.965 165 L 157.965 163.75 H 150 V 161.25 Z" style="fill: rgb(216, 216, 216); stroke: rgb(0, 0, 0);" bx:shape="arrow 150 160 10 5 2.5 2.035 0 1@6a9853e1"/>
      <path d="M 115 86.25 H 122.965 L 122.965 85 L 125 87.5 L 122.965 90 L 122.965 88.75 H 115 V 86.25 Z" style="fill: rgb(216, 216, 216); stroke: rgb(0, 0, 0);" transform="matrix(0, 1, -1, 0, 224.661972, 5)" bx:shape="arrow 115 85 10 5 2.5 2.035 0 1@c599ae12"/>
    </g>
    <text style="white-space: pre; fill: rgb(51, 51, 51); font-family: Arial, sans-serif; font-size: 13.3px;" x="100.045" y="46.212">GPU 1</text>
  </g>
  <g transform="matrix(1, 0, 0, 1, 114, 142.810074)">
    <g>
      <rect x="50" y="50" width="140" height="150" rx="8" ry="8" style="fill: rgb(216, 216, 216); stroke: rgb(0, 0, 0);"/>
      <rect x="60" y="60" width="15" height="130" rx="5" ry="5" style="stroke: rgb(0, 0, 0); fill: rgb(228, 236, 235);"/>
      <rect x="130" y="60" width="15" height="55" rx="5" ry="5" style="stroke: rgb(0, 0, 0); fill: rgb(228, 236, 235);"/>
      <rect x="95" y="60" width="15" height="130" rx="5" ry="5" style="stroke: rgb(0, 0, 0); fill: rgb(228, 236, 235);"/>
      <rect x="165" y="60" width="15" height="130" rx="5" ry="5" style="stroke: rgb(0, 0, 0); fill: rgb(228, 236, 235);"/>
      <rect x="130" y="135" width="15" height="55" rx="5" ry="5" style="stroke: rgb(0, 0, 0); fill: rgb(228, 236, 235);"/>
      <path d="M 80 121.25 H 87.965 L 87.965 120 L 90 122.5 L 87.965 125 L 87.965 123.75 H 80 V 121.25 Z" style="fill: rgb(216, 216, 216); stroke: rgb(0, 0, 0);" bx:shape="arrow 80 120 10 5 2.5 2.035 0 1@d85637c5"/>
      <path d="M 115 86.25 H 122.965 L 122.965 85 L 125 87.5 L 122.965 90 L 122.965 88.75 H 115 V 86.25 Z" style="fill: rgb(216, 216, 216); stroke: rgb(0, 0, 0);" bx:shape="arrow 115 85 10 5 2.5 2.035 0 1@c599ae12"/>
      <path d="M 150 161.25 H 157.965 L 157.965 160 L 160 162.5 L 157.965 165 L 157.965 163.75 H 150 V 161.25 Z" style="fill: rgb(216, 216, 216); stroke: rgb(0, 0, 0);" bx:shape="arrow 150 160 10 5 2.5 2.035 0 1@6a9853e1"/>
      <path d="M 115 86.25 H 122.965 L 122.965 85 L 125 87.5 L 122.965 90 L 122.965 88.75 H 115 V 86.25 Z" style="fill: rgb(216, 216, 216); stroke: rgb(0, 0, 0);" transform="matrix(0, 1, -1, 0, 224.661972, 5)" bx:shape="arrow 115 85 10 5 2.5 2.035 0 1@c599ae12"/>
    </g>
    <text style="white-space: pre; fill: rgb(51, 51, 51); font-family: Arial, sans-serif; font-size: 13.3px;" x="100.045" y="46.212">GPU 3</text>
  </g>
  <g transform="matrix(1, 0, 0, 1, -46, 142.810074)">
    <g>
      <rect x="50" y="50" width="140" height="150" rx="8" ry="8" style="fill: rgb(216, 216, 216); stroke: rgb(0, 0, 0);"/>
      <rect x="60" y="60" width="15" height="130" rx="5" ry="5" style="stroke: rgb(0, 0, 0); fill: rgb(228, 236, 235);"/>
      <rect x="130" y="60" width="15" height="55" rx="5" ry="5" style="stroke: rgb(0, 0, 0); fill: rgb(228, 236, 235);"/>
      <rect x="95" y="60" width="15" height="130" rx="5" ry="5" style="stroke: rgb(0, 0, 0); fill: rgb(228, 236, 235);"/>
      <rect x="165" y="60" width="15" height="130" rx="5" ry="5" style="stroke: rgb(0, 0, 0); fill: rgb(228, 236, 235);"/>
      <rect x="130" y="135" width="15" height="55" rx="5" ry="5" style="stroke: rgb(0, 0, 0); fill: rgb(228, 236, 235);"/>
      <path d="M 80 121.25 H 87.965 L 87.965 120 L 90 122.5 L 87.965 125 L 87.965 123.75 H 80 V 121.25 Z" style="fill: rgb(216, 216, 216); stroke: rgb(0, 0, 0);" bx:shape="arrow 80 120 10 5 2.5 2.035 0 1@d85637c5"/>
      <path d="M 115 86.25 H 122.965 L 122.965 85 L 125 87.5 L 122.965 90 L 122.965 88.75 H 115 V 86.25 Z" style="fill: rgb(216, 216, 216); stroke: rgb(0, 0, 0);" bx:shape="arrow 115 85 10 5 2.5 2.035 0 1@c599ae12"/>
      <path d="M 150 161.25 H 157.965 L 157.965 160 L 160 162.5 L 157.965 165 L 157.965 163.75 H 150 V 161.25 Z" style="fill: rgb(216, 216, 216); stroke: rgb(0, 0, 0);" bx:shape="arrow 150 160 10 5 2.5 2.035 0 1@6a9853e1"/>
      <path d="M 115 86.25 H 122.965 L 122.965 85 L 125 87.5 L 122.965 90 L 122.965 88.75 H 115 V 86.25 Z" style="fill: rgb(216, 216, 216); stroke: rgb(0, 0, 0);" transform="matrix(0, 1, -1, 0, 224.661972, 5)" bx:shape="arrow 115 85 10 5 2.5 2.035 0 1@c599ae12"/>
    </g>
    <text style="white-space: pre; fill: rgb(51, 51, 51); font-family: Arial, sans-serif; font-size: 13.3px;" x="100.045" y="46.212">GPU 2</text>
  </g>
  <g transform="matrix(1, 0, 0, 1, 0.818458, -1.153332)">
    <rect x="91.497" y="119.407" width="119.07" height="126.04" rx="5" ry="5" style="fill: rgb(216, 216, 216); stroke: rgb(0, 0, 0);"/>
    <text style="white-space: pre; fill: rgb(51, 51, 51); font-family: Arial, sans-serif; font-size: 14px; text-anchor: middle;" x="112.649" y="188.56" transform="matrix(1, 0, 0, 1, 38.383202, -8.373769)">Weights'<tspan x="112.64900207519531" dy="1em">​</tspan>Average</text>
  </g>
</svg>