<?xml version="1.0" encoding="utf-8"?>
<svg viewBox="0 0 700 790" xmlns="http://www.w3.org/2000/svg" xmlns:bx="https://boxy-svg.com">
  <g>
    <g transform="matrix(1, 0, 0, 1, 4.289, 0.802)">
      <g transform="matrix(1, 0, 0, 1, -46, -32.18993)">
        <g>
          <rect x="50" y="50" width="140" height="150" rx="8" ry="8" style="fill: rgb(216, 216, 216); stroke: rgb(0, 0, 0);"/>
          <rect x="60" y="60" width="15" height="130" rx="5" ry="5" style="stroke: rgb(0, 0, 0); fill: rgb(228, 236, 235);"/>
          <rect x="130" y="60" width="15" height="55" rx="5" ry="5" style="stroke: rgb(0, 0, 0); fill: rgb(228, 236, 235);"/>
          <rect x="95" y="60" width="15" height="130" rx="5" ry="5" style="stroke: rgb(0, 0, 0); fill: rgb(228, 236, 235);"/>
          <rect x="165" y="60" width="15" height="130" rx="5" ry="5" style="stroke: rgb(0, 0, 0); fill: rgb(228, 236, 235);"/>
          <rect x="130" y="135" width="15" height="55" rx="5" ry="5" style="stroke: rgb(0, 0, 0); fill: rgb(228, 236, 235);"/>
          <path d="M 80 121.25 H 87.965 L 87.965 120 L 90 122.5 L 87.965 125 L 87.965 123.75 H 80 V 121.25 Z" style="fill: rgb(216, 216, 216); stroke: rgb(0, 0, 0);" bx:shape="arrow 80 120 10 5 2.5 2.035 0 1@d85637c5"/>
          <path d="M 115 86.25 H 122.965 L 122.965 85 L 125 87.5 L 122.965 90 L 122.965 88.75 H 115 V 86.25 Z" style="fill: rgb(216, 216, 216); stroke: rgb(0, 0, 0);" bx:shape="arrow 115 85 10 5 2.5 2.035 0 1@c599ae12"/>
          <path d="M 150 161.25 H 157.965 L 157.965 160 L 160 162.5 L 157.965 165 L 157.965 163.75 H 150 V 161.25 Z" style="fill: rgb(216, 216, 216); stroke: rgb(0, 0, 0);" bx:shape="arrow 150 160 10 5 2.5 2.035 0 1@6a9853e1"/>
          <path d="M 115 86.25 H 122.965 L 122.965 85 L 125 87.5 L 122.965 90 L 122.965 88.75 H 115 V 86.25 Z" style="fill: rgb(216, 216, 216); stroke: rgb(0, 0, 0);" transform="matrix(0, 1, -1, 0, 224.661972, 5)" bx:shape="arrow 115 85 10 5 2.5 2.035 0 1@c599ae12"/>
        </g>
        <text style="white-space: pre; fill: rgb(51, 51, 51); font-family: Arial, sans-serif; font-size: 13.3px;" x="100.045" y="46.212">GPU 0</text>
      </g>
      <g transform="matrix(1, 0, 0, 1, 114, -32.18993)">
        <g>
          <rect x="50" y="50" width="140" height="150" rx="8" ry="8" style="fill: rgb(216, 216, 216); stroke: rgb(0, 0, 0);"/>
          <rect x="60" y="60" width="15" height="130" rx="5" ry="5" style="stroke: rgb(0, 0, 0); fill: rgb(228, 236, 235);"/>
          <rect x="130" y="60" width="15" height="55" rx="5" ry="5" style="stroke: rgb(0, 0, 0); fill: rgb(228, 236, 235);"/>
          <rect x="95" y="60" width="15" height="130" rx="5" ry="5" style="stroke: rgb(0, 0, 0); fill: rgb(228, 236, 235);"/>
          <rect x="165" y="60" width="15" height="130" rx="5" ry="5" style="stroke: rgb(0, 0, 0); fill: rgb(228, 236, 235);"/>
          <rect x="130" y="135" width="15" height="55" rx="5" ry="5" style="stroke: rgb(0, 0, 0); fill: rgb(228, 236, 235);"/>
          <path d="M 80 121.25 H 87.965 L 87.965 120 L 90 122.5 L 87.965 125 L 87.965 123.75 H 80 V 121.25 Z" style="fill: rgb(216, 216, 216); stroke: rgb(0, 0, 0);" bx:shape="arrow 80 120 10 5 2.5 2.035 0 1@d85637c5"/>
          <path d="M 115 86.25 H 122.965 L 122.965 85 L 125 87.5 L 122.965 90 L 122.965 88.75 H 115 V 86.25 Z" style="fill: rgb(216, 216, 216); stroke: rgb(0, 0, 0);" bx:shape="arrow 115 85 10 5 2.5 2.035 0 1@c599ae12"/>
          <path d="M 150 161.25 H 157.965 L 157.965 160 L 160 162.5 L 157.965 165 L 157.965 163.75 H 150 V 161.25 Z" style="fill: rgb(216, 216, 216); stroke: rgb(0, 0, 0);" bx:shape="arrow 150 160 10 5 2.5 2.035 0 1@6a9853e1"/>
          <path d="M 115 86.25 H 122.965 L 122.965 85 L 125 87.5 L 122.965 90 L 122.965 88.75 H 115 V 86.25 Z" style="fill: rgb(216, 216, 216); stroke: rgb(0, 0, 0);" transform="matrix(0, 1, -1, 0, 224.661972, 5)" bx:shape="arrow 115 85 10 5 2.5 2.035 0 1@c599ae12"/>
        </g>
        <text style="white-space: pre; fill: rgb(51, 51, 51); font-family: Arial, sans-serif; font-size: 13.3px;" x="100.045" y="46.212">GPU 1</text>
      </g>
      <g transform="matrix(1, 0, 0, 1, 114, 142.810074)">
        <g>
          <rect x="50" y="50" width="140" height="150" rx="8" ry="8" style="fill: rgb(216, 216, 216); stroke: rgb(0, 0, 0);"/>
          <rect x="60" y="60" width="15" height="130" rx="5" ry="5" style="stroke: rgb(0, 0, 0); fill: rgb(228, 236, 235);"/>
          <rect x="130" y="60" width="15" height="55" rx="5" ry="5" style="stroke: rgb(0, 0, 0); fill: rgb(228, 236, 235);"/>
          <rect x="95" y="60" width="15" height="130" rx="5" ry="5" style="stroke: rgb(0, 0, 0); fill: rgb(228, 236, 235);"/>
          <rect x="165" y="60" width="15" height="130" rx="5" ry="5" style="stroke: rgb(0, 0, 0); fill: rgb(228, 236, 235);"/>
          <rect x="130" y="135" width="15" height="55" rx="5" ry="5" style="stroke: rgb(0, 0, 0); fill: rgb(228, 236, 235);"/>
          <path d="M 80 121.25 H 87.965 L 87.965 120 L 90 122.5 L 87.965 125 L 87.965 123.75 H 80 V 121.25 Z" style="fill: rgb(216, 216, 216); stroke: rgb(0, 0, 0);" bx:shape="arrow 80 120 10 5 2.5 2.035 0 1@d85637c5"/>
          <path d="M 115 86.25 H 122.965 L 122.965 85 L 125 87.5 L 122.965 90 L 122.965 88.75 H 115 V 86.25 Z" style="fill: rgb(216, 216, 216); stroke: rgb(0, 0, 0);" bx:shape="arrow 115 85 10 5 2.5 2.035 0 1@c599ae12"/>
          <path d="M 150 161.25 H 157.965 L 157.965 160 L 160 162.5 L 157.965 165 L 157.965 163.75 H 150 V 161.25 Z" style="fill: rgb(216, 216, 216); stroke: rgb(0, 0, 0);" bx:shape="arrow 150 160 10 5 2.5 2.035 0 1@6a9853e1"/>
          <path d="M 115 86.25 H 122.965 L 122.965 85 L 125 87.5 L 122.965 90 L 122.965 88.75 H 115 V 86.25 Z" style="fill: rgb(216, 216, 216); stroke: rgb(0, 0, 0);" transform="matrix(0, 1, -1, 0, 224.661972, 5)" bx:shape="arrow 115 85 10 5 2.5 2.035 0 1@c599ae12"/>
        </g>
        <text style="white-space: pre; fill: rgb(51, 51, 51); font-family: Arial, sans-serif; font-size: 13.3px;" x="100.045" y="46.212">GPU 3</text>
      </g>
      <g transform="matrix(1, 0, 0, 1, -46, 142.810074)">
        <g>
          <rect x="50" y="50" width="140" height="150" rx="8" ry="8" style="fill: rgb(216, 216, 216); stroke: rgb(0, 0, 0);"/>
          <rect x="60" y="60" width="15" height="130" rx="5" ry="5" style="stroke: rgb(0, 0, 0); fill: rgb(228, 236, 235);"/>
          <rect x="130" y="60" width="15" height="55" rx="5" ry="5" style="stroke: rgb(0, 0, 0); fill: rgb(228, 236, 235);"/>
          <rect x="95" y="60" width="15" height="130" rx="5" ry="5" style="stroke: rgb(0, 0, 0); fill: rgb(228, 236, 235);"/>
          <rect x="165" y="60" width="15" height="130" rx="5" ry="5" style="stroke: rgb(0, 0, 0); fill: rgb(228, 236, 235);"/>
          <rect x="130" y="135" width="15" height="55" rx="5" ry="5" style="stroke: rgb(0, 0, 0); fill: rgb(228, 236, 235);"/>
          <path d="M 80 121.25 H 87.965 L 87.965 120 L 90 122.5 L 87.965 125 L 87.965 123.75 H 80 V 121.25 Z" style="fill: rgb(216, 216, 216); stroke: rgb(0, 0, 0);" bx:shape="arrow 80 120 10 5 2.5 2.035 0 1@d85637c5"/>
          <path d="M 115 86.25 H 122.965 L 122.965 85 L 125 87.5 L 122.965 90 L 122.965 88.75 H 115 V 86.25 Z" style="fill: rgb(216, 216, 216); stroke: rgb(0, 0, 0);" bx:shape="arrow 115 85 10 5 2.5 2.035 0 1@c599ae12"/>
          <path d="M 150 161.25 H 157.965 L 157.965 160 L 160 162.5 L 157.965 165 L 157.965 163.75 H 150 V 161.25 Z" style="fill: rgb(216, 216, 216); stroke: rgb(0, 0, 0);" bx:shape="arrow 150 160 10 5 2.5 2.035 0 1@6a9853e1"/>
          <path d="M 115 86.25 H 122.965 L 122.965 85 L 125 87.5 L 122.965 90 L 122.965 88.75 H 115 V 86.25 Z" style="fill: rgb(216, 216, 216); stroke: rgb(0, 0, 0);" transform="matrix(0, 1, -1, 0, 224.661972, 5)" bx:shape="arrow 115 85 10 5 2.5 2.035 0 1@c599ae12"/>
        </g>
        <text style="white-space: pre; fill: rgb(51, 51, 51); font-family: Arial, sans-serif; font-size: 13.3px;" x="100.045" y="46.212">GPU 2</text>
      </g>
      <rect x="-3.289" y="0.198" width="313.837" height="350.099" rx="5" ry="5" style="fill: rgb(216, 216, 216); stroke: rgb(0, 0, 0); fill-opacity: 0.51;"/>
      <text style="fill: rgb(51, 51, 51); font-family: Arial, sans-serif; font-size: 64px; white-space: pre;" x="51.441" y="197.191">Node 0</text>
    </g>
    <g transform="matrix(1, 0, 0, 1, 373.289001, 0.802)">
      <g transform="matrix(1, 0, 0, 1, -46, -32.18993)">
        <g>
          <rect x="50" y="50" width="140" height="150" rx="8" ry="8" style="fill: rgb(216, 216, 216); stroke: rgb(0, 0, 0);"/>
          <rect x="60" y="60" width="15" height="130" rx="5" ry="5" style="stroke: rgb(0, 0, 0); fill: rgb(228, 236, 235);"/>
          <rect x="130" y="60" width="15" height="55" rx="5" ry="5" style="stroke: rgb(0, 0, 0); fill: rgb(228, 236, 235);"/>
          <rect x="95" y="60" width="15" height="130" rx="5" ry="5" style="stroke: rgb(0, 0, 0); fill: rgb(228, 236, 235);"/>
          <rect x="165" y="60" width="15" height="130" rx="5" ry="5" style="stroke: rgb(0, 0, 0); fill: rgb(228, 236, 235);"/>
          <rect x="130" y="135" width="15" height="55" rx="5" ry="5" style="stroke: rgb(0, 0, 0); fill: rgb(228, 236, 235);"/>
          <path d="M 80 121.25 H 87.965 L 87.965 120 L 90 122.5 L 87.965 125 L 87.965 123.75 H 80 V 121.25 Z" style="fill: rgb(216, 216, 216); stroke: rgb(0, 0, 0);" bx:shape="arrow 80 120 10 5 2.5 2.035 0 1@d85637c5"/>
          <path d="M 115 86.25 H 122.965 L 122.965 85 L 125 87.5 L 122.965 90 L 122.965 88.75 H 115 V 86.25 Z" style="fill: rgb(216, 216, 216); stroke: rgb(0, 0, 0);" bx:shape="arrow 115 85 10 5 2.5 2.035 0 1@c599ae12"/>
          <path d="M 150 161.25 H 157.965 L 157.965 160 L 160 162.5 L 157.965 165 L 157.965 163.75 H 150 V 161.25 Z" style="fill: rgb(216, 216, 216); stroke: rgb(0, 0, 0);" bx:shape="arrow 150 160 10 5 2.5 2.035 0 1@6a9853e1"/>
          <path d="M 115 86.25 H 122.965 L 122.965 85 L 125 87.5 L 122.965 90 L 122.965 88.75 H 115 V 86.25 Z" style="fill: rgb(216, 216, 216); stroke: rgb(0, 0, 0);" transform="matrix(0, 1, -1, 0, 224.661972, 5)" bx:shape="arrow 115 85 10 5 2.5 2.035 0 1@c599ae12"/>
        </g>
        <text style="white-space: pre; fill: rgb(51, 51, 51); font-family: Arial, sans-serif; font-size: 13.3px;" x="100.045" y="46.212">GPU 0</text>
      </g>
      <g transform="matrix(1, 0, 0, 1, 114, -32.18993)">
        <g>
          <rect x="50" y="50" width="140" height="150" rx="8" ry="8" style="fill: rgb(216, 216, 216); stroke: rgb(0, 0, 0);"/>
          <rect x="60" y="60" width="15" height="130" rx="5" ry="5" style="stroke: rgb(0, 0, 0); fill: rgb(228, 236, 235);"/>
          <rect x="130" y="60" width="15" height="55" rx="5" ry="5" style="stroke: rgb(0, 0, 0); fill: rgb(228, 236, 235);"/>
          <rect x="95" y="60" width="15" height="130" rx="5" ry="5" style="stroke: rgb(0, 0, 0); fill: rgb(228, 236, 235);"/>
          <rect x="165" y="60" width="15" height="130" rx="5" ry="5" style="stroke: rgb(0, 0, 0); fill: rgb(228, 236, 235);"/>
          <rect x="130" y="135" width="15" height="55" rx="5" ry="5" style="stroke: rgb(0, 0, 0); fill: rgb(228, 236, 235);"/>
          <path d="M 80 121.25 H 87.965 L 87.965 120 L 90 122.5 L 87.965 125 L 87.965 123.75 H 80 V 121.25 Z" style="fill: rgb(216, 216, 216); stroke: rgb(0, 0, 0);" bx:shape="arrow 80 120 10 5 2.5 2.035 0 1@d85637c5"/>
          <path d="M 115 86.25 H 122.965 L 122.965 85 L 125 87.5 L 122.965 90 L 122.965 88.75 H 115 V 86.25 Z" style="fill: rgb(216, 216, 216); stroke: rgb(0, 0, 0);" bx:shape="arrow 115 85 10 5 2.5 2.035 0 1@c599ae12"/>
          <path d="M 150 161.25 H 157.965 L 157.965 160 L 160 162.5 L 157.965 165 L 157.965 163.75 H 150 V 161.25 Z" style="fill: rgb(216, 216, 216); stroke: rgb(0, 0, 0);" bx:shape="arrow 150 160 10 5 2.5 2.035 0 1@6a9853e1"/>
          <path d="M 115 86.25 H 122.965 L 122.965 85 L 125 87.5 L 122.965 90 L 122.965 88.75 H 115 V 86.25 Z" style="fill: rgb(216, 216, 216); stroke: rgb(0, 0, 0);" transform="matrix(0, 1, -1, 0, 224.661972, 5)" bx:shape="arrow 115 85 10 5 2.5 2.035 0 1@c599ae12"/>
        </g>
        <text style="white-space: pre; fill: rgb(51, 51, 51); font-family: Arial, sans-serif; font-size: 13.3px;" x="100.045" y="46.212">GPU 1</text>
      </g>
      <g transform="matrix(1, 0, 0, 1, 114, 142.810074)">
        <g>
          <rect x="50" y="50" width="140" height="150" rx="8" ry="8" style="fill: rgb(216, 216, 216); stroke: rgb(0, 0, 0);"/>
          <rect x="60" y="60" width="15" height="130" rx="5" ry="5" style="stroke: rgb(0, 0, 0); fill: rgb(228, 236, 235);"/>
          <rect x="130" y="60" width="15" height="55" rx="5" ry="5" style="stroke: rgb(0, 0, 0); fill: rgb(228, 236, 235);"/>
          <rect x="95" y="60" width="15" height="130" rx="5" ry="5" style="stroke: rgb(0, 0, 0); fill: rgb(228, 236, 235);"/>
          <rect x="165" y="60" width="15" height="130" rx="5" ry="5" style="stroke: rgb(0, 0, 0); fill: rgb(228, 236, 235);"/>
          <rect x="130" y="135" width="15" height="55" rx="5" ry="5" style="stroke: rgb(0, 0, 0); fill: rgb(228, 236, 235);"/>
          <path d="M 80 121.25 H 87.965 L 87.965 120 L 90 122.5 L 87.965 125 L 87.965 123.75 H 80 V 121.25 Z" style="fill: rgb(216, 216, 216); stroke: rgb(0, 0, 0);" bx:shape="arrow 80 120 10 5 2.5 2.035 0 1@d85637c5"/>
          <path d="M 115 86.25 H 122.965 L 122.965 85 L 125 87.5 L 122.965 90 L 122.965 88.75 H 115 V 86.25 Z" style="fill: rgb(216, 216, 216); stroke: rgb(0, 0, 0);" bx:shape="arrow 115 85 10 5 2.5 2.035 0 1@c599ae12"/>
          <path d="M 150 161.25 H 157.965 L 157.965 160 L 160 162.5 L 157.965 165 L 157.965 163.75 H 150 V 161.25 Z" style="fill: rgb(216, 216, 216); stroke: rgb(0, 0, 0);" bx:shape="arrow 150 160 10 5 2.5 2.035 0 1@6a9853e1"/>
          <path d="M 115 86.25 H 122.965 L 122.965 85 L 125 87.5 L 122.965 90 L 122.965 88.75 H 115 V 86.25 Z" style="fill: rgb(216, 216, 216); stroke: rgb(0, 0, 0);" transform="matrix(0, 1, -1, 0, 224.661972, 5)" bx:shape="arrow 115 85 10 5 2.5 2.035 0 1@c599ae12"/>
        </g>
        <text style="white-space: pre; fill: rgb(51, 51, 51); font-family: Arial, sans-serif; font-size: 13.3px;" x="100.045" y="46.212">GPU 3</text>
      </g>
      <g transform="matrix(1, 0, 0, 1, -46, 142.810074)">
        <g>
          <rect x="50" y="50" width="140" height="150" rx="8" ry="8" style="fill: rgb(216, 216, 216); stroke: rgb(0, 0, 0);"/>
          <rect x="60" y="60" width="15" height="130" rx="5" ry="5" style="stroke: rgb(0, 0, 0); fill: rgb(228, 236, 235);"/>
          <rect x="130" y="60" width="15" height="55" rx="5" ry="5" style="stroke: rgb(0, 0, 0); fill: rgb(228, 236, 235);"/>
          <rect x="95" y="60" width="15" height="130" rx="5" ry="5" style="stroke: rgb(0, 0, 0); fill: rgb(228, 236, 235);"/>
          <rect x="165" y="60" width="15" height="130" rx="5" ry="5" style="stroke: rgb(0, 0, 0); fill: rgb(228, 236, 235);"/>
          <rect x="130" y="135" width="15" height="55" rx="5" ry="5" style="stroke: rgb(0, 0, 0); fill: rgb(228, 236, 235);"/>
          <path d="M 80 121.25 H 87.965 L 87.965 120 L 90 122.5 L 87.965 125 L 87.965 123.75 H 80 V 121.25 Z" style="fill: rgb(216, 216, 216); stroke: rgb(0, 0, 0);" bx:shape="arrow 80 120 10 5 2.5 2.035 0 1@d85637c5"/>
          <path d="M 115 86.25 H 122.965 L 122.965 85 L 125 87.5 L 122.965 90 L 122.965 88.75 H 115 V 86.25 Z" style="fill: rgb(216, 216, 216); stroke: rgb(0, 0, 0);" bx:shape="arrow 115 85 10 5 2.5 2.035 0 1@c599ae12"/>
          <path d="M 150 161.25 H 157.965 L 157.965 160 L 160 162.5 L 157.965 165 L 157.965 163.75 H 150 V 161.25 Z" style="fill: rgb(216, 216, 216); stroke: rgb(0, 0, 0);" bx:shape="arrow 150 160 10 5 2.5 2.035 0 1@6a9853e1"/>
          <path d="M 115 86.25 H 122.965 L 122.965 85 L 125 87.5 L 122.965 90 L 122.965 88.75 H 115 V 86.25 Z" style="fill: rgb(216, 216, 216); stroke: rgb(0, 0, 0);" transform="matrix(0, 1, -1, 0, 224.661972, 5)" bx:shape="arrow 115 85 10 5 2.5 2.035 0 1@c599ae12"/>
        </g>
        <text style="white-space: pre; fill: rgb(51, 51, 51); font-family: Arial, sans-serif; font-size: 13.3px;" x="100.045" y="46.212">GPU 2</text>
      </g>
      <rect x="-3.289" y="0.198" width="313.837" height="350.099" rx="5" ry="5" style="fill: rgb(216, 216, 216); stroke: rgb(0, 0, 0); fill-opacity: 0.51;"/>
      <text style="fill: rgb(51, 51, 51); font-family: Arial, sans-serif; font-size: 64px; white-space: pre;" x="51.441" y="197.191">Node 1</text>
    </g>
    <g transform="matrix(1, 0, 0, 1, 4.242527, 405.802002)">
      <g transform="matrix(1, 0, 0, 1, -46, -32.18993)">
        <g>
          <rect x="50" y="50" width="140" height="150" rx="8" ry="8" style="fill: rgb(216, 216, 216); stroke: rgb(0, 0, 0);"/>
          <rect x="60" y="60" width="15" height="130" rx="5" ry="5" style="stroke: rgb(0, 0, 0); fill: rgb(228, 236, 235);"/>
          <rect x="130" y="60" width="15" height="55" rx="5" ry="5" style="stroke: rgb(0, 0, 0); fill: rgb(228, 236, 235);"/>
          <rect x="95" y="60" width="15" height="130" rx="5" ry="5" style="stroke: rgb(0, 0, 0); fill: rgb(228, 236, 235);"/>
          <rect x="165" y="60" width="15" height="130" rx="5" ry="5" style="stroke: rgb(0, 0, 0); fill: rgb(228, 236, 235);"/>
          <rect x="130" y="135" width="15" height="55" rx="5" ry="5" style="stroke: rgb(0, 0, 0); fill: rgb(228, 236, 235);"/>
          <path d="M 80 121.25 H 87.965 L 87.965 120 L 90 122.5 L 87.965 125 L 87.965 123.75 H 80 V 121.25 Z" style="fill: rgb(216, 216, 216); stroke: rgb(0, 0, 0);" bx:shape="arrow 80 120 10 5 2.5 2.035 0 1@d85637c5"/>
          <path d="M 115 86.25 H 122.965 L 122.965 85 L 125 87.5 L 122.965 90 L 122.965 88.75 H 115 V 86.25 Z" style="fill: rgb(216, 216, 216); stroke: rgb(0, 0, 0);" bx:shape="arrow 115 85 10 5 2.5 2.035 0 1@c599ae12"/>
          <path d="M 150 161.25 H 157.965 L 157.965 160 L 160 162.5 L 157.965 165 L 157.965 163.75 H 150 V 161.25 Z" style="fill: rgb(216, 216, 216); stroke: rgb(0, 0, 0);" bx:shape="arrow 150 160 10 5 2.5 2.035 0 1@6a9853e1"/>
          <path d="M 115 86.25 H 122.965 L 122.965 85 L 125 87.5 L 122.965 90 L 122.965 88.75 H 115 V 86.25 Z" style="fill: rgb(216, 216, 216); stroke: rgb(0, 0, 0);" transform="matrix(0, 1, -1, 0, 224.661972, 5)" bx:shape="arrow 115 85 10 5 2.5 2.035 0 1@c599ae12"/>
        </g>
        <text style="white-space: pre; fill: rgb(51, 51, 51); font-family: Arial, sans-serif; font-size: 13.3px;" x="100.045" y="46.212">GPU 0</text>
      </g>
      <g transform="matrix(1, 0, 0, 1, 114, -32.18993)">
        <g>
          <rect x="50" y="50" width="140" height="150" rx="8" ry="8" style="fill: rgb(216, 216, 216); stroke: rgb(0, 0, 0);"/>
          <rect x="60" y="60" width="15" height="130" rx="5" ry="5" style="stroke: rgb(0, 0, 0); fill: rgb(228, 236, 235);"/>
          <rect x="130" y="60" width="15" height="55" rx="5" ry="5" style="stroke: rgb(0, 0, 0); fill: rgb(228, 236, 235);"/>
          <rect x="95" y="60" width="15" height="130" rx="5" ry="5" style="stroke: rgb(0, 0, 0); fill: rgb(228, 236, 235);"/>
          <rect x="165" y="60" width="15" height="130" rx="5" ry="5" style="stroke: rgb(0, 0, 0); fill: rgb(228, 236, 235);"/>
          <rect x="130" y="135" width="15" height="55" rx="5" ry="5" style="stroke: rgb(0, 0, 0); fill: rgb(228, 236, 235);"/>
          <path d="M 80 121.25 H 87.965 L 87.965 120 L 90 122.5 L 87.965 125 L 87.965 123.75 H 80 V 121.25 Z" style="fill: rgb(216, 216, 216); stroke: rgb(0, 0, 0);" bx:shape="arrow 80 120 10 5 2.5 2.035 0 1@d85637c5"/>
          <path d="M 115 86.25 H 122.965 L 122.965 85 L 125 87.5 L 122.965 90 L 122.965 88.75 H 115 V 86.25 Z" style="fill: rgb(216, 216, 216); stroke: rgb(0, 0, 0);" bx:shape="arrow 115 85 10 5 2.5 2.035 0 1@c599ae12"/>
          <path d="M 150 161.25 H 157.965 L 157.965 160 L 160 162.5 L 157.965 165 L 157.965 163.75 H 150 V 161.25 Z" style="fill: rgb(216, 216, 216); stroke: rgb(0, 0, 0);" bx:shape="arrow 150 160 10 5 2.5 2.035 0 1@6a9853e1"/>
          <path d="M 115 86.25 H 122.965 L 122.965 85 L 125 87.5 L 122.965 90 L 122.965 88.75 H 115 V 86.25 Z" style="fill: rgb(216, 216, 216); stroke: rgb(0, 0, 0);" transform="matrix(0, 1, -1, 0, 224.661972, 5)" bx:shape="arrow 115 85 10 5 2.5 2.035 0 1@c599ae12"/>
        </g>
        <text style="white-space: pre; fill: rgb(51, 51, 51); font-family: Arial, sans-serif; font-size: 13.3px;" x="100.045" y="46.212">GPU 1</text>
      </g>
      <g transform="matrix(1, 0, 0, 1, 114, 142.810074)">
        <g>
          <rect x="50" y="50" width="140" height="150" rx="8" ry="8" style="fill: rgb(216, 216, 216); stroke: rgb(0, 0, 0);"/>
          <rect x="60" y="60" width="15" height="130" rx="5" ry="5" style="stroke: rgb(0, 0, 0); fill: rgb(228, 236, 235);"/>
          <rect x="130" y="60" width="15" height="55" rx="5" ry="5" style="stroke: rgb(0, 0, 0); fill: rgb(228, 236, 235);"/>
          <rect x="95" y="60" width="15" height="130" rx="5" ry="5" style="stroke: rgb(0, 0, 0); fill: rgb(228, 236, 235);"/>
          <rect x="165" y="60" width="15" height="130" rx="5" ry="5" style="stroke: rgb(0, 0, 0); fill: rgb(228, 236, 235);"/>
          <rect x="130" y="135" width="15" height="55" rx="5" ry="5" style="stroke: rgb(0, 0, 0); fill: rgb(228, 236, 235);"/>
          <path d="M 80 121.25 H 87.965 L 87.965 120 L 90 122.5 L 87.965 125 L 87.965 123.75 H 80 V 121.25 Z" style="fill: rgb(216, 216, 216); stroke: rgb(0, 0, 0);" bx:shape="arrow 80 120 10 5 2.5 2.035 0 1@d85637c5"/>
          <path d="M 115 86.25 H 122.965 L 122.965 85 L 125 87.5 L 122.965 90 L 122.965 88.75 H 115 V 86.25 Z" style="fill: rgb(216, 216, 216); stroke: rgb(0, 0, 0);" bx:shape="arrow 115 85 10 5 2.5 2.035 0 1@c599ae12"/>
          <path d="M 150 161.25 H 157.965 L 157.965 160 L 160 162.5 L 157.965 165 L 157.965 163.75 H 150 V 161.25 Z" style="fill: rgb(216, 216, 216); stroke: rgb(0, 0, 0);" bx:shape="arrow 150 160 10 5 2.5 2.035 0 1@6a9853e1"/>
          <path d="M 115 86.25 H 122.965 L 122.965 85 L 125 87.5 L 122.965 90 L 122.965 88.75 H 115 V 86.25 Z" style="fill: rgb(216, 216, 216); stroke: rgb(0, 0, 0);" transform="matrix(0, 1, -1, 0, 224.661972, 5)" bx:shape="arrow 115 85 10 5 2.5 2.035 0 1@c599ae12"/>
        </g>
        <text style="white-space: pre; fill: rgb(51, 51, 51); font-family: Arial, sans-serif; font-size: 13.3px;" x="100.045" y="46.212">GPU 3</text>
      </g>
      <g transform="matrix(1, 0, 0, 1, -46, 142.810074)">
        <g>
          <rect x="50" y="50" width="140" height="150" rx="8" ry="8" style="fill: rgb(216, 216, 216); stroke: rgb(0, 0, 0);"/>
          <rect x="60" y="60" width="15" height="130" rx="5" ry="5" style="stroke: rgb(0, 0, 0); fill: rgb(228, 236, 235);"/>
          <rect x="130" y="60" width="15" height="55" rx="5" ry="5" style="stroke: rgb(0, 0, 0); fill: rgb(228, 236, 235);"/>
          <rect x="95" y="60" width="15" height="130" rx="5" ry="5" style="stroke: rgb(0, 0, 0); fill: rgb(228, 236, 235);"/>
          <rect x="165" y="60" width="15" height="130" rx="5" ry="5" style="stroke: rgb(0, 0, 0); fill: rgb(228, 236, 235);"/>
          <rect x="130" y="135" width="15" height="55" rx="5" ry="5" style="stroke: rgb(0, 0, 0); fill: rgb(228, 236, 235);"/>
          <path d="M 80 121.25 H 87.965 L 87.965 120 L 90 122.5 L 87.965 125 L 87.965 123.75 H 80 V 121.25 Z" style="fill: rgb(216, 216, 216); stroke: rgb(0, 0, 0);" bx:shape="arrow 80 120 10 5 2.5 2.035 0 1@d85637c5"/>
          <path d="M 115 86.25 H 122.965 L 122.965 85 L 125 87.5 L 122.965 90 L 122.965 88.75 H 115 V 86.25 Z" style="fill: rgb(216, 216, 216); stroke: rgb(0, 0, 0);" bx:shape="arrow 115 85 10 5 2.5 2.035 0 1@c599ae12"/>
          <path d="M 150 161.25 H 157.965 L 157.965 160 L 160 162.5 L 157.965 165 L 157.965 163.75 H 150 V 161.25 Z" style="fill: rgb(216, 216, 216); stroke: rgb(0, 0, 0);" bx:shape="arrow 150 160 10 5 2.5 2.035 0 1@6a9853e1"/>
          <path d="M 115 86.25 H 122.965 L 122.965 85 L 125 87.5 L 122.965 90 L 122.965 88.75 H 115 V 86.25 Z" style="fill: rgb(216, 216, 216); stroke: rgb(0, 0, 0);" transform="matrix(0, 1, -1, 0, 224.661972, 5)" bx:shape="arrow 115 85 10 5 2.5 2.035 0 1@c599ae12"/>
        </g>
        <text style="white-space: pre; fill: rgb(51, 51, 51); font-family: Arial, sans-serif; font-size: 13.3px;" x="100.045" y="46.212">GPU 2</text>
      </g>
      <rect x="-3.289" y="0.198" width="313.837" height="350.099" rx="5" ry="5" style="fill: rgb(216, 216, 216); stroke: rgb(0, 0, 0); fill-opacity: 0.51;"/>
      <text style="fill: rgb(51, 51, 51); font-family: Arial, sans-serif; font-size: 64px; white-space: pre;" x="51.441" y="197.191">Node 3</text>
    </g>
    <g transform="matrix(1, 0, 0, 1, -100.262848, 50)">
      <g transform="matrix(1, 0, 0, 1, -7.993309, 0)">
        <g transform="matrix(1, 0, 0, 1, 156.262848, -1.381989)">
          <g transform="matrix(1, 0, 0, 1, 437.242554, 498.948608)">
            <g>
              <rect x="50" y="50" width="140" height="150" rx="8" ry="8" style="fill: rgb(216, 216, 216); stroke: rgb(0, 0, 0);"/>
              <rect x="60" y="60" width="15" height="130" rx="5" ry="5" style="stroke: rgb(0, 0, 0); fill: rgb(228, 236, 235);"/>
              <rect x="130" y="60" width="15" height="55" rx="5" ry="5" style="stroke: rgb(0, 0, 0); fill: rgb(228, 236, 235);"/>
              <rect x="95" y="60" width="15" height="130" rx="5" ry="5" style="stroke: rgb(0, 0, 0); fill: rgb(228, 236, 235);"/>
              <rect x="165" y="60" width="15" height="130" rx="5" ry="5" style="stroke: rgb(0, 0, 0); fill: rgb(228, 236, 235);"/>
              <rect x="130" y="135" width="15" height="55" rx="5" ry="5" style="stroke: rgb(0, 0, 0); fill: rgb(228, 236, 235);"/>
              <path d="M 80 121.25 H 87.965 L 87.965 120 L 90 122.5 L 87.965 125 L 87.965 123.75 H 80 V 121.25 Z" style="fill: rgb(216, 216, 216); stroke: rgb(0, 0, 0);" bx:shape="arrow 80 120 10 5 2.5 2.035 0 1@d85637c5"/>
              <path d="M 115 86.25 H 122.965 L 122.965 85 L 125 87.5 L 122.965 90 L 122.965 88.75 H 115 V 86.25 Z" style="fill: rgb(216, 216, 216); stroke: rgb(0, 0, 0);" bx:shape="arrow 115 85 10 5 2.5 2.035 0 1@c599ae12"/>
              <path d="M 150 161.25 H 157.965 L 157.965 160 L 160 162.5 L 157.965 165 L 157.965 163.75 H 150 V 161.25 Z" style="fill: rgb(216, 216, 216); stroke: rgb(0, 0, 0);" bx:shape="arrow 150 160 10 5 2.5 2.035 0 1@6a9853e1"/>
              <path d="M 115 86.25 H 122.965 L 122.965 85 L 125 87.5 L 122.965 90 L 122.965 88.75 H 115 V 86.25 Z" style="fill: rgb(216, 216, 216); stroke: rgb(0, 0, 0);" transform="matrix(0, 1, -1, 0, 224.661972, 5)" bx:shape="arrow 115 85 10 5 2.5 2.035 0 1@c599ae12"/>
            </g>
            <text style="white-space: pre; fill: rgb(51, 51, 51); font-family: Arial, sans-serif; font-size: 13.3px;" x="100.045" y="46.212">GPU 3</text>
          </g>
          <g transform="matrix(1, 0, 0, 1, 2, 5)">
            <g transform="matrix(1, 0, 0, 1, 277.242523, 323.948608)">
              <g>
                <rect x="50" y="50" width="140" height="150" rx="8" ry="8" style="fill: rgb(216, 216, 216); stroke: rgb(0, 0, 0);"/>
                <rect x="60" y="60" width="15" height="130" rx="5" ry="5" style="stroke: rgb(0, 0, 0); fill: rgb(228, 236, 235);"/>
                <rect x="130" y="60" width="15" height="55" rx="5" ry="5" style="stroke: rgb(0, 0, 0); fill: rgb(228, 236, 235);"/>
                <rect x="95" y="60" width="15" height="130" rx="5" ry="5" style="stroke: rgb(0, 0, 0); fill: rgb(228, 236, 235);"/>
                <rect x="165" y="60" width="15" height="130" rx="5" ry="5" style="stroke: rgb(0, 0, 0); fill: rgb(228, 236, 235);"/>
                <rect x="130" y="135" width="15" height="55" rx="5" ry="5" style="stroke: rgb(0, 0, 0); fill: rgb(228, 236, 235);"/>
                <path d="M 80 121.25 H 87.965 L 87.965 120 L 90 122.5 L 87.965 125 L 87.965 123.75 H 80 V 121.25 Z" style="fill: rgb(216, 216, 216); stroke: rgb(0, 0, 0);" bx:shape="arrow 80 120 10 5 2.5 2.035 0 1@d85637c5"/>
                <path d="M 115 86.25 H 122.965 L 122.965 85 L 125 87.5 L 122.965 90 L 122.965 88.75 H 115 V 86.25 Z" style="fill: rgb(216, 216, 216); stroke: rgb(0, 0, 0);" bx:shape="arrow 115 85 10 5 2.5 2.035 0 1@c599ae12"/>
                <path d="M 150 161.25 H 157.965 L 157.965 160 L 160 162.5 L 157.965 165 L 157.965 163.75 H 150 V 161.25 Z" style="fill: rgb(216, 216, 216); stroke: rgb(0, 0, 0);" bx:shape="arrow 150 160 10 5 2.5 2.035 0 1@6a9853e1"/>
                <path d="M 115 86.25 H 122.965 L 122.965 85 L 125 87.5 L 122.965 90 L 122.965 88.75 H 115 V 86.25 Z" style="fill: rgb(216, 216, 216); stroke: rgb(0, 0, 0);" transform="matrix(0, 1, -1, 0, 224.661972, 5)" bx:shape="arrow 115 85 10 5 2.5 2.035 0 1@c599ae12"/>
              </g>
              <text style="white-space: pre; fill: rgb(51, 51, 51); font-family: Arial, sans-serif; font-size: 13.3px;" x="100.045" y="46.212">GPU 0</text>
            </g>
            <g transform="matrix(1, 0, 0, 1, 437.242554, 323.948608)">
              <g>
                <rect x="50" y="50" width="140" height="150" rx="8" ry="8" style="fill: rgb(216, 216, 216); stroke: rgb(0, 0, 0);"/>
                <rect x="60" y="60" width="15" height="130" rx="5" ry="5" style="stroke: rgb(0, 0, 0); fill: rgb(228, 236, 235);"/>
                <rect x="130" y="60" width="15" height="55" rx="5" ry="5" style="stroke: rgb(0, 0, 0); fill: rgb(228, 236, 235);"/>
                <rect x="95" y="60" width="15" height="130" rx="5" ry="5" style="stroke: rgb(0, 0, 0); fill: rgb(228, 236, 235);"/>
                <rect x="165" y="60" width="15" height="130" rx="5" ry="5" style="stroke: rgb(0, 0, 0); fill: rgb(228, 236, 235);"/>
                <rect x="130" y="135" width="15" height="55" rx="5" ry="5" style="stroke: rgb(0, 0, 0); fill: rgb(228, 236, 235);"/>
                <path d="M 80 121.25 H 87.965 L 87.965 120 L 90 122.5 L 87.965 125 L 87.965 123.75 H 80 V 121.25 Z" style="fill: rgb(216, 216, 216); stroke: rgb(0, 0, 0);" bx:shape="arrow 80 120 10 5 2.5 2.035 0 1@d85637c5"/>
                <path d="M 115 86.25 H 122.965 L 122.965 85 L 125 87.5 L 122.965 90 L 122.965 88.75 H 115 V 86.25 Z" style="fill: rgb(216, 216, 216); stroke: rgb(0, 0, 0);" bx:shape="arrow 115 85 10 5 2.5 2.035 0 1@c599ae12"/>
                <path d="M 150 161.25 H 157.965 L 157.965 160 L 160 162.5 L 157.965 165 L 157.965 163.75 H 150 V 161.25 Z" style="fill: rgb(216, 216, 216); stroke: rgb(0, 0, 0);" bx:shape="arrow 150 160 10 5 2.5 2.035 0 1@6a9853e1"/>
                <path d="M 115 86.25 H 122.965 L 122.965 85 L 125 87.5 L 122.965 90 L 122.965 88.75 H 115 V 86.25 Z" style="fill: rgb(216, 216, 216); stroke: rgb(0, 0, 0);" transform="matrix(0, 1, -1, 0, 224.661972, 5)" bx:shape="arrow 115 85 10 5 2.5 2.035 0 1@c599ae12"/>
              </g>
              <text style="white-space: pre; fill: rgb(51, 51, 51); font-family: Arial, sans-serif; font-size: 13.3px;" x="100.045" y="46.212">GPU 1</text>
            </g>
            <g transform="matrix(1, 0, 0, 1, 277.242523, 493.948608)">
              <g>
                <rect x="50" y="50" width="140" height="150" rx="8" ry="8" style="fill: rgb(216, 216, 216); stroke: rgb(0, 0, 0);"/>
                <rect x="60" y="60" width="15" height="130" rx="5" ry="5" style="stroke: rgb(0, 0, 0); fill: rgb(228, 236, 235);"/>
                <rect x="130" y="60" width="15" height="55" rx="5" ry="5" style="stroke: rgb(0, 0, 0); fill: rgb(228, 236, 235);"/>
                <rect x="95" y="60" width="15" height="130" rx="5" ry="5" style="stroke: rgb(0, 0, 0); fill: rgb(228, 236, 235);"/>
                <rect x="165" y="60" width="15" height="130" rx="5" ry="5" style="stroke: rgb(0, 0, 0); fill: rgb(228, 236, 235);"/>
                <rect x="130" y="135" width="15" height="55" rx="5" ry="5" style="stroke: rgb(0, 0, 0); fill: rgb(228, 236, 235);"/>
                <path d="M 80 121.25 H 87.965 L 87.965 120 L 90 122.5 L 87.965 125 L 87.965 123.75 H 80 V 121.25 Z" style="fill: rgb(216, 216, 216); stroke: rgb(0, 0, 0);" bx:shape="arrow 80 120 10 5 2.5 2.035 0 1@d85637c5"/>
                <path d="M 115 86.25 H 122.965 L 122.965 85 L 125 87.5 L 122.965 90 L 122.965 88.75 H 115 V 86.25 Z" style="fill: rgb(216, 216, 216); stroke: rgb(0, 0, 0);" bx:shape="arrow 115 85 10 5 2.5 2.035 0 1@c599ae12"/>
                <path d="M 150 161.25 H 157.965 L 157.965 160 L 160 162.5 L 157.965 165 L 157.965 163.75 H 150 V 161.25 Z" style="fill: rgb(216, 216, 216); stroke: rgb(0, 0, 0);" bx:shape="arrow 150 160 10 5 2.5 2.035 0 1@6a9853e1"/>
                <path d="M 115 86.25 H 122.965 L 122.965 85 L 125 87.5 L 122.965 90 L 122.965 88.75 H 115 V 86.25 Z" style="fill: rgb(216, 216, 216); stroke: rgb(0, 0, 0);" transform="matrix(0, 1, -1, 0, 224.661972, 5)" bx:shape="arrow 115 85 10 5 2.5 2.035 0 1@c599ae12"/>
              </g>
              <text style="white-space: pre; fill: rgb(51, 51, 51); font-family: Arial, sans-serif; font-size: 13.3px;" x="100.045" y="46.212">GPU 2</text>
            </g>
            <rect x="320" y="352.382" width="313.837" height="350.099" rx="5" ry="5" style="fill: rgb(216, 216, 216); stroke: rgb(0, 0, 0); fill-opacity: 0.51;"/>
          </g>
        </g>
      </g>
      <text style="fill: rgb(51, 51, 51); font-family: Arial, sans-serif; font-size: 64px; white-space: pre;" x="524" y="553.33">Node 4</text>
    </g>
  </g>
  <g transform="matrix(1, 0, 0, 1, 0.818458, -1.153332)"/>
  <g transform="matrix(1, 0, 0, 1, -16.80488, 10.110977)">
    <rect x="226.078" y="235.313" width="266.251" height="266.251" rx="5" ry="5" style="fill: rgb(216, 216, 216); stroke: rgb(0, 0, 0);"/>
    <text style="white-space: pre; fill: rgb(51, 51, 51); font-family: Arial, sans-serif; font-size: 18.9px; text-anchor: middle;" x="270.617" y="355.959" transform="matrix(1, 0, 0, 1, 88.586517, -0.000137)">Parameter Averaging<tspan x="270.61700439453125" dy="1em">​</tspan>with our super high-speed<tspan x="270.61700439453125" dy="1em">​</tspan>network ⚡️⚡️⚡️💪</text>
  </g>
</svg>