<?xml version="1.0" encoding="utf-8"?>
<svg viewBox="56.686 26.729 362.718 437.423" xmlns="http://www.w3.org/2000/svg">
  <g>
    <g transform="matrix(1.063442, 0, 0, 1, 67.041245, -17.414162)">
      <g transform="matrix(1, 0, 0, 1, -104.654739, 49.507683)">
        <g transform="matrix(0.380121, 0, 0, 0.818073, 71.210014, 28.059727)" style="">
          <ellipse style="stroke: rgb(0, 0, 0); paint-order: fill; stroke-width: 0px; transform-origin: 200.218px 237.501px; fill: rgb(104, 104, 104); stroke-linecap: round;" cx="200.218" cy="237.501" rx="85" ry="17.6"/>
          <ellipse style="stroke: rgb(0, 0, 0); stroke-width: 0px; fill: rgb(104, 104, 104); stroke-linecap: round;" cx="200.2" cy="253.816" rx="85" ry="20.058"/>
          <rect x="115.2" y="239.001" width="170" height="14.497" style="stroke: rgb(0, 0, 0); stroke-width: 0px; fill: rgb(104, 104, 104); stroke-linecap: round;"/>
        </g>
        <g transform="matrix(0.380121, 0, 0, 0.818073, 71.210014, 9.533175)" style="">
          <ellipse style="stroke: rgb(0, 0, 0); paint-order: fill; stroke-width: 0px; fill: rgb(216, 216, 216); transform-origin: 200.218px 237.501px; stroke-linecap: round;" cx="200.218" cy="237.501" rx="85" ry="17.6"/>
          <ellipse style="fill: rgb(216, 216, 216); stroke: rgb(0, 0, 0); stroke-width: 0px; stroke-linecap: round;" cx="200.2" cy="253.816" rx="85" ry="20.058"/>
          <rect x="115.2" y="239.001" width="170" height="14.497" style="fill: rgb(216, 216, 216); stroke: rgb(0, 0, 0); stroke-width: 0px; stroke-linecap: round;"/>
        </g>
        <g transform="matrix(0.380121, 0, 0, 0.818073, 71.210014, -7.857576)" style="">
          <ellipse style="stroke: rgb(0, 0, 0); paint-order: fill; stroke-width: 0px; transform-origin: 200.218px 237.501px; fill: rgb(104, 104, 104); stroke-linecap: round;" cx="200.218" cy="237.501" rx="85" ry="17.6"/>
          <ellipse style="stroke: rgb(0, 0, 0); stroke-width: 0px; fill: rgb(104, 104, 104); stroke-linecap: round;" cx="200.2" cy="253.816" rx="85" ry="20.058"/>
          <rect x="115.2" y="239.001" width="170" height="14.497" style="stroke: rgb(0, 0, 0); stroke-width: 0px; fill: rgb(104, 104, 104); stroke-linecap: round;"/>
        </g>
        <g transform="matrix(0.380121, 0, 0, 0.818073, 71.210014, -25.427193)" style="">
          <ellipse style="stroke: rgb(0, 0, 0); paint-order: fill; stroke-width: 0px; fill: rgb(216, 216, 216); transform-origin: 200.218px 237.501px; stroke-linecap: round;" cx="200.218" cy="237.501" rx="85" ry="17.6"/>
          <ellipse style="fill: rgb(216, 216, 216); stroke: rgb(0, 0, 0); stroke-width: 0px; stroke-linecap: round;" cx="200.2" cy="253.816" rx="85" ry="20.058"/>
          <rect x="115.2" y="239.001" width="170" height="14.497" style="fill: rgb(216, 216, 216); stroke: rgb(0, 0, 0); stroke-width: 0px; stroke-linecap: round;"/>
        </g>
      </g>
      <text style="fill: rgb(51, 51, 51); font-family: &quot;Apple Braille&quot;; font-size: 14px; stroke-linecap: round; white-space: pre;" x="7.812" y="199.742">ImageNet.h5</text>
    </g>
    <polyline style="fill: rgb(216, 216, 216); stroke-linecap: round; stroke-width: 2px; stroke: rgb(104, 104, 104); transform-origin: 193.722px 172.064px;" points="155.128 212.114 228.291 135.06"/>
    <g transform="matrix(1, 0, 0, 1, 123.920959, -223.338608)">
      <rect x="114.95" y="339.764" width="53.72" height="31.48" style="fill: rgb(216, 216, 216); stroke-linecap: round; stroke-linejoin: round; stroke-width: 4px; stroke: rgb(104, 104, 104);"/>
      <rect x="118.075" y="334.208" width="14.327" height="5.715" style="fill: rgb(216, 216, 216); stroke-linecap: round; stroke-linejoin: round; stroke-width: 4px; stroke: rgb(104, 104, 104);"/>
      <rect x="119.986" y="337.637" width="10.491" height="14.811" style="fill: rgb(216, 216, 216); stroke: rgb(0, 0, 0); stroke-width: 0px;"/>
      <text style="fill: rgb(51, 51, 51); font-family: &quot;Apple Braille&quot;; font-size: 14px; white-space: pre;" transform="matrix(1.016341, 0, 0, 1, -10.473589, 82.908813)" x="136.822" y="275.034">train</text>
    </g>
    <g>
      <g transform="matrix(1, 0, 0, 1, 154.777832, 5.214819)">
        <g transform="matrix(1, 0, 0, 1, 37.4296, -83.182587)">
          <rect x="163.69" y="129.012" width="48.024" height="63.732" style="fill: rgb(216, 216, 216); stroke: rgb(104, 104, 104); stroke-width: 4px; stroke-linecap: round;"/>
          <polyline style="stroke-linecap: round; stroke-width: 2px; fill: rgb(104, 104, 104); stroke: rgb(104, 104, 104);" points="172 138 204.858 138"/>
          <polyline style="stroke-linecap: round; stroke-width: 2px; fill: rgb(104, 104, 104); stroke: rgb(104, 104, 104);" points="172 147 204.858 147"/>
          <polyline style="stroke-linecap: round; stroke-width: 2px; fill: rgb(104, 104, 104); stroke: rgb(104, 104, 104);" points="172 155 204.858 155"/>
          <polyline style="stroke-linecap: round; stroke-width: 2px; fill: rgb(104, 104, 104); stroke: rgb(104, 104, 104);" points="172 165 204.858 165"/>
          <polyline style="stroke-linecap: round; stroke-width: 2px; fill: rgb(104, 104, 104); stroke: rgb(104, 104, 104);" points="172 182 204.858 182"/>
          <polyline style="stroke-linecap: round; stroke-width: 2px; fill: rgb(104, 104, 104); stroke: rgb(104, 104, 104);" points="172 173 204.858 173"/>
        </g>
        <text style="fill: rgb(51, 51, 51); font-family: &quot;Apple Braille&quot;; font-size: 14px; white-space: pre;" x="205.186" y="37.836">images</text>
      </g>
      <g transform="matrix(1, 0, 0, 1, 154.768204, 22.526684)">
        <g transform="matrix(1, 0, 0, 1, 37.409996, 2.024488)">
          <rect x="163.69" y="129.012" width="48.024" height="63.732" style="fill: rgb(216, 216, 216); stroke: rgb(104, 104, 104); stroke-width: 4px; stroke-linecap: round;"/>
          <polyline style="stroke-linecap: round; stroke-width: 2px; fill: rgb(104, 104, 104); stroke: rgb(104, 104, 104);" points="172 138 204.858 138"/>
          <polyline style="stroke-linecap: round; stroke-width: 2px; fill: rgb(104, 104, 104); stroke: rgb(104, 104, 104);" points="172 147 204.858 147"/>
          <polyline style="stroke-linecap: round; stroke-width: 2px; fill: rgb(104, 104, 104); stroke: rgb(104, 104, 104);" points="172 155 204.858 155"/>
          <polyline style="stroke-linecap: round; stroke-width: 2px; fill: rgb(104, 104, 104); stroke: rgb(104, 104, 104);" points="172 165 204.858 165"/>
          <polyline style="stroke-linecap: round; stroke-width: 2px; fill: rgb(104, 104, 104); stroke: rgb(104, 104, 104);" points="172 182 204.858 182"/>
          <polyline style="stroke-linecap: round; stroke-width: 2px; fill: rgb(104, 104, 104); stroke: rgb(104, 104, 104);" points="172 173 204.858 173"/>
        </g>
        <text style="fill: rgb(51, 51, 51); font-family: &quot;Apple Braille&quot;; font-size: 14px; white-space: pre;" x="206.2" y="123.707">targets</text>
      </g>
      <polyline style="fill: rgb(216, 216, 216); stroke-linecap: round; stroke-width: 2px; stroke: rgb(104, 104, 104); transform-origin: 324.576px 98.048px;" points="300.624 120.005 346.03 77.761"/>
      <polyline style="fill: rgb(216, 216, 216); stroke-linecap: round; stroke-width: 2px; stroke: rgb(104, 104, 104); transform-origin: 325.015px 164.901px;" points="301.063 186.858 346.469 144.614" transform="matrix(0.073107, 0.997324, -0.997324, 0.073107, -0.00002, 0.000008)"/>
    </g>
    <g transform="matrix(1, 0, 0, 1, 123.520523, 4.691065)">
      <rect x="114.95" y="339.764" width="53.72" height="31.48" style="fill: rgb(216, 216, 216); stroke-linecap: round; stroke-linejoin: round; stroke-width: 4px; stroke: rgb(104, 104, 104);"/>
      <rect x="118.075" y="334.368" width="14.327" height="5.555" style="fill: rgb(216, 216, 216); stroke-linecap: round; stroke-linejoin: round; stroke-width: 4px; stroke: rgb(104, 104, 104);"/>
      <rect x="119.986" y="337.637" width="10.491" height="14.811" style="fill: rgb(216, 216, 216); stroke: rgb(0, 0, 0); stroke-width: 0px;"/>
      <text style="fill: rgb(51, 51, 51); font-family: &quot;Apple Braille&quot;; font-size: 14px; white-space: pre;" transform="matrix(1.016341, 0, 0, 1, -10.473589, 82.908813)" x="136.822" y="275.034">val</text>
    </g>
    <polyline style="fill: rgb(216, 216, 216); stroke-linecap: round; stroke-width: 2px; stroke: rgb(104, 104, 104); transform-origin: 190.878px 308.149px;" points="152.284 348.199 225.447 271.145" transform="matrix(0.069757, -0.997564, 0.997564, 0.069757, -0.000013, 0.000019)"/>
    <g transform="matrix(1, 0, 0, 1, -0.023993, 228.776642)">
      <g transform="matrix(1, 0, 0, 1, 154.777832, 5.214819)">
        <g transform="matrix(1, 0, 0, 1, 37.4296, -83.182587)">
          <rect x="163.69" y="129.012" width="48.024" height="63.732" style="fill: rgb(216, 216, 216); stroke: rgb(104, 104, 104); stroke-width: 4px; stroke-linecap: round;"/>
          <polyline style="stroke-linecap: round; stroke-width: 2px; fill: rgb(104, 104, 104); stroke: rgb(104, 104, 104);" points="172 138 204.858 138"/>
          <polyline style="stroke-linecap: round; stroke-width: 2px; fill: rgb(104, 104, 104); stroke: rgb(104, 104, 104);" points="172 147 204.858 147"/>
          <polyline style="stroke-linecap: round; stroke-width: 2px; fill: rgb(104, 104, 104); stroke: rgb(104, 104, 104);" points="172 155 204.858 155"/>
          <polyline style="stroke-linecap: round; stroke-width: 2px; fill: rgb(104, 104, 104); stroke: rgb(104, 104, 104);" points="172 165 204.858 165"/>
          <polyline style="stroke-linecap: round; stroke-width: 2px; fill: rgb(104, 104, 104); stroke: rgb(104, 104, 104);" points="172 182 204.858 182"/>
          <polyline style="stroke-linecap: round; stroke-width: 2px; fill: rgb(104, 104, 104); stroke: rgb(104, 104, 104);" points="172 173 204.858 173"/>
        </g>
        <text style="fill: rgb(51, 51, 51); font-family: &quot;Apple Braille&quot;; font-size: 14px; white-space: pre;" x="205.186" y="37.836">images</text>
      </g>
      <g transform="matrix(1, 0, 0, 1, 154.768204, 22.526684)">
        <g transform="matrix(1, 0, 0, 1, 37.409996, 2.024488)">
          <rect x="163.69" y="129.012" width="48.024" height="63.732" style="fill: rgb(216, 216, 216); stroke: rgb(104, 104, 104); stroke-width: 4px; stroke-linecap: round;"/>
          <polyline style="stroke-linecap: round; stroke-width: 2px; fill: rgb(104, 104, 104); stroke: rgb(104, 104, 104);" points="172 138 204.858 138"/>
          <polyline style="stroke-linecap: round; stroke-width: 2px; fill: rgb(104, 104, 104); stroke: rgb(104, 104, 104);" points="172 147 204.858 147"/>
          <polyline style="stroke-linecap: round; stroke-width: 2px; fill: rgb(104, 104, 104); stroke: rgb(104, 104, 104);" points="172 155 204.858 155"/>
          <polyline style="stroke-linecap: round; stroke-width: 2px; fill: rgb(104, 104, 104); stroke: rgb(104, 104, 104);" points="172 165 204.858 165"/>
          <polyline style="stroke-linecap: round; stroke-width: 2px; fill: rgb(104, 104, 104); stroke: rgb(104, 104, 104);" points="172 182 204.858 182"/>
          <polyline style="stroke-linecap: round; stroke-width: 2px; fill: rgb(104, 104, 104); stroke: rgb(104, 104, 104);" points="172 173 204.858 173"/>
        </g>
        <text style="fill: rgb(51, 51, 51); font-family: &quot;Apple Braille&quot;; font-size: 14px; white-space: pre;" x="206.2" y="123.707">targets</text>
      </g>
      <polyline style="fill: rgb(216, 216, 216); stroke-linecap: round; stroke-width: 2px; stroke: rgb(104, 104, 104); transform-origin: 324.576px 98.048px;" points="300.624 120.005 346.03 77.761"/>
      <polyline style="fill: rgb(216, 216, 216); stroke-linecap: round; stroke-width: 2px; stroke: rgb(104, 104, 104); transform-origin: 325.015px 164.901px;" points="301.063 186.858 346.469 144.614" transform="matrix(0.073107, 0.997324, -0.997324, 0.073107, -0.00002, 0.000008)"/>
    </g>
  </g>
</svg>