<?xml version="1.0" encoding="utf-8"?>
<svg viewBox="73.755 143.967 325.574 1055.795" preserveAspectRatio="xMaxYMin slice" xmlns="http://www.w3.org/2000/svg">
  <g transform="matrix(1.063442, 0, 0, 1, 184.543304, -37.504993)">
    <g transform="matrix(1, 0, 0, 1, -104.654739, 49.507683)">
      <g transform="matrix(0.380121, 0, 0, 0.818073, 71.210014, 28.059727)" style="">
        <ellipse style="stroke: rgb(0, 0, 0); paint-order: fill; stroke-width: 0px; transform-origin: 200.218px 237.501px; fill: rgb(104, 104, 104); stroke-linecap: round;" cx="200.218" cy="237.501" rx="85" ry="17.6"/>
        <ellipse style="stroke: rgb(0, 0, 0); stroke-width: 0px; fill: rgb(104, 104, 104); stroke-linecap: round;" cx="200.2" cy="253.816" rx="85" ry="20.058"/>
        <rect x="115.2" y="239.001" width="170" height="14.497" style="stroke: rgb(0, 0, 0); stroke-width: 0px; fill: rgb(104, 104, 104); stroke-linecap: round;"/>
      </g>
      <g transform="matrix(0.380121, 0, 0, 0.818073, 71.210014, 9.533175)" style="">
        <ellipse style="stroke: rgb(0, 0, 0); paint-order: fill; stroke-width: 0px; fill: rgb(216, 216, 216); transform-origin: 200.218px 237.501px; stroke-linecap: round;" cx="200.218" cy="237.501" rx="85" ry="17.6"/>
        <ellipse style="fill: rgb(216, 216, 216); stroke: rgb(0, 0, 0); stroke-width: 0px; stroke-linecap: round;" cx="200.2" cy="253.816" rx="85" ry="20.058"/>
        <rect x="115.2" y="239.001" width="170" height="14.497" style="fill: rgb(216, 216, 216); stroke: rgb(0, 0, 0); stroke-width: 0px; stroke-linecap: round;"/>
      </g>
      <g transform="matrix(0.380121, 0, 0, 0.818073, 71.210014, -7.857576)" style="">
        <ellipse style="stroke: rgb(0, 0, 0); paint-order: fill; stroke-width: 0px; transform-origin: 200.218px 237.501px; fill: rgb(104, 104, 104); stroke-linecap: round;" cx="200.218" cy="237.501" rx="85" ry="17.6"/>
        <ellipse style="stroke: rgb(0, 0, 0); stroke-width: 0px; fill: rgb(104, 104, 104); stroke-linecap: round;" cx="200.2" cy="253.816" rx="85" ry="20.058"/>
        <rect x="115.2" y="239.001" width="170" height="14.497" style="stroke: rgb(0, 0, 0); stroke-width: 0px; fill: rgb(104, 104, 104); stroke-linecap: round;"/>
      </g>
      <g transform="matrix(0.380121, 0, 0, 0.818073, 71.210014, -25.427193)" style="">
        <ellipse style="stroke: rgb(0, 0, 0); paint-order: fill; stroke-width: 0px; fill: rgb(216, 216, 216); transform-origin: 200.218px 237.501px; stroke-linecap: round;" cx="200.218" cy="237.501" rx="85" ry="17.6"/>
        <ellipse style="fill: rgb(216, 216, 216); stroke: rgb(0, 0, 0); stroke-width: 0px; stroke-linecap: round;" cx="200.2" cy="253.816" rx="85" ry="20.058"/>
        <rect x="115.2" y="239.001" width="170" height="14.497" style="fill: rgb(216, 216, 216); stroke: rgb(0, 0, 0); stroke-width: 0px; stroke-linecap: round;"/>
      </g>
    </g>
    <text style="fill: rgb(51, 51, 51); font-family: &quot;Apple Braille&quot;; font-size: 14px; stroke-linecap: round; white-space: pre;" x="5.706" y="199.407">ImageNet.h5</text>
  </g>
</svg>