<?xml version="1.0" encoding="utf-8"?>
<svg viewBox="56.636 140.304 309.312 359.696" xmlns="http://www.w3.org/2000/svg">
  <g transform="matrix(1, 0, 0, 1, 123.356094, -175.090286)">
    <rect x="114.95" y="339.764" width="53.72" height="31.48" style="fill: rgb(216, 216, 216); stroke-linecap: round; stroke-linejoin: round; stroke-width: 4px; stroke: rgb(104, 104, 104);"/>
    <rect x="118.075" y="331.805" width="14.327" height="8.118" style="fill: rgb(216, 216, 216); stroke-linecap: round; stroke-linejoin: round; stroke-width: 4px; stroke: rgb(104, 104, 104);"/>
    <rect x="119.986" y="337.637" width="10.491" height="14.811" style="fill: rgb(216, 216, 216); stroke: rgb(0, 0, 0); stroke-width: 0px;"/>
    <text style="fill: rgb(51, 51, 51); font-family: &quot;Apple Braille&quot;; font-size: 14px; white-space: pre;" transform="matrix(1.016341, 0, 0, 1, -10.473589, 82.908813)" x="136.822" y="275.034">train</text>
  </g>
  <g transform="matrix(1, 0, 0, 1, 123.350006, -73.219566)">
    <rect x="114.95" y="339.764" width="53.72" height="31.48" style="fill: rgb(216, 216, 216); stroke-linecap: round; stroke-linejoin: round; stroke-width: 4px; stroke: rgb(104, 104, 104);"/>
    <rect x="118.075" y="331.805" width="14.327" height="8.118" style="fill: rgb(216, 216, 216); stroke-linecap: round; stroke-linejoin: round; stroke-width: 4px; stroke: rgb(104, 104, 104);"/>
    <rect x="119.986" y="337.637" width="10.491" height="14.811" style="fill: rgb(216, 216, 216); stroke: rgb(0, 0, 0); stroke-width: 0px;"/>
    <text style="fill: rgb(51, 51, 51); font-family: &quot;Apple Braille&quot;; font-size: 14px; white-space: pre;" transform="matrix(1.016341, 0, 0, 1, -10.473589, 82.908813)" x="136.822" y="275.034">val</text>
  </g>
  <g transform="matrix(1.063257, 0, 0, 1, 104.190414, -22.06822)" style="">
    <g transform="matrix(1, 0, 0, 1, -104.654739, 49.507683)">
      <g transform="matrix(0.380121, 0, 0, 0.818073, 71.210014, 28.059727)" style="">
        <ellipse style="stroke: rgb(0, 0, 0); paint-order: fill; stroke-width: 0px; transform-origin: 200.218px 237.501px; fill: rgb(104, 104, 104); stroke-linecap: round;" cx="200.218" cy="237.501" rx="85" ry="17.6"/>
        <ellipse style="stroke: rgb(0, 0, 0); stroke-width: 0px; fill: rgb(104, 104, 104); stroke-linecap: round;" cx="200.2" cy="253.816" rx="85" ry="20.058"/>
        <rect x="115.2" y="239.001" width="170" height="14.497" style="stroke: rgb(0, 0, 0); stroke-width: 0px; fill: rgb(104, 104, 104); stroke-linecap: round;"/>
      </g>
      <g transform="matrix(0.380121, 0, 0, 0.818073, 71.210014, 9.533175)" style="">
        <ellipse style="stroke: rgb(0, 0, 0); paint-order: fill; stroke-width: 0px; fill: rgb(216, 216, 216); transform-origin: 200.218px 237.501px; stroke-linecap: round;" cx="200.218" cy="237.501" rx="85" ry="17.6"/>
        <ellipse style="fill: rgb(216, 216, 216); stroke: rgb(0, 0, 0); stroke-width: 0px; stroke-linecap: round;" cx="200.2" cy="253.816" rx="85" ry="20.058"/>
        <rect x="115.2" y="239.001" width="170" height="14.497" style="fill: rgb(216, 216, 216); stroke: rgb(0, 0, 0); stroke-width: 0px; stroke-linecap: round;"/>
      </g>
      <g transform="matrix(0.380121, 0, 0, 0.818073, 71.210014, -7.857576)" style="">
        <ellipse style="stroke: rgb(0, 0, 0); paint-order: fill; stroke-width: 0px; transform-origin: 200.218px 237.501px; fill: rgb(104, 104, 104); stroke-linecap: round;" cx="200.218" cy="237.501" rx="85" ry="17.6"/>
        <ellipse style="stroke: rgb(0, 0, 0); stroke-width: 0px; fill: rgb(104, 104, 104); stroke-linecap: round;" cx="200.2" cy="253.816" rx="85" ry="20.058"/>
        <rect x="115.2" y="239.001" width="170" height="14.497" style="stroke: rgb(0, 0, 0); stroke-width: 0px; fill: rgb(104, 104, 104); stroke-linecap: round;"/>
      </g>
      <g transform="matrix(0.380121, 0, 0, 0.818073, 71.210014, -25.427193)" style="">
        <ellipse style="stroke: rgb(0, 0, 0); paint-order: fill; stroke-width: 0px; fill: rgb(216, 216, 216); transform-origin: 200.218px 237.501px; stroke-linecap: round;" cx="200.218" cy="237.501" rx="85" ry="17.6"/>
        <ellipse style="fill: rgb(216, 216, 216); stroke: rgb(0, 0, 0); stroke-width: 0px; stroke-linecap: round;" cx="200.2" cy="253.816" rx="85" ry="20.058"/>
        <rect x="115.2" y="239.001" width="170" height="14.497" style="fill: rgb(216, 216, 216); stroke: rgb(0, 0, 0); stroke-width: 0px; stroke-linecap: round;"/>
      </g>
    </g>
    <text style="fill: rgb(51, 51, 51); font-family: &quot;Apple Braille&quot;; font-size: 14px; stroke-linecap: round; white-space: pre;" x="7.812" y="199.742">ImageNet.h5</text>
  </g>
  <polyline style="fill: rgb(216, 216, 216); stroke-linecap: round; stroke-width: 2px; stroke: rgb(104, 104, 104); transform-origin: 210.619px 195.881px;" points="191.71 211.437 227.557 181.507"/>
  <polyline style="stroke-linecap: round; stroke-width: 2px; fill: rgb(104, 104, 104); stroke: rgb(104, 104, 104);" points="191.678 250.047 230.735 283.719"/>
</svg>