<?xml version="1.0" encoding="utf-8"?>
<svg viewBox="0 0 309 350" xmlns="http://www.w3.org/2000/svg" xmlns:bx="https://boxy-svg.com">
  <g transform="matrix(1, 0, 0, 1, -46, -32.18993)">
    <g>
      <rect x="50" y="50" width="140" height="150" rx="8" ry="8" style="fill: rgb(216, 216, 216); stroke: rgb(0, 0, 0);"/>
      <g transform="matrix(1, 0, 0, 1, 3.676998, 4)">
        <g transform="matrix(1, 0, 0, 1, 1, 1)">
          <rect x="55.323" y="55.264" width="120" height="130" rx="5" ry="5" style="stroke: rgb(0, 0, 0); fill: rgb(228, 236, 235);"/>
        </g>
        <text style="white-space: pre; fill: rgb(51, 51, 51); font-family: Arial, sans-serif; font-size: 14px;" x="92.979" y="126.023">Layer 1</text>
      </g>
    </g>
    <text style="white-space: pre; fill: rgb(51, 51, 51); font-family: Arial, sans-serif; font-size: 13.3px;" x="100.045" y="46.212">GPU 0</text>
  </g>
  <g transform="matrix(1, 0, 0, 1, 114, 142.810074)">
    <g>
      <rect x="50" y="50" width="140" height="150" rx="8" ry="8" style="fill: rgb(216, 216, 216); stroke: rgb(0, 0, 0);"/>
      <rect x="60" y="60" width="120" height="130" rx="5" ry="5" style="stroke: rgb(0, 0, 0); fill: rgb(228, 236, 235);"/>
      <text style="white-space: pre; fill: rgb(51, 51, 51); font-family: Arial, sans-serif; font-size: 14px;" x="96.656" y="129.759">Layer 5</text>
    </g>
    <text style="white-space: pre; fill: rgb(51, 51, 51); font-family: Arial, sans-serif; font-size: 13.3px;" x="100.045" y="46.212">GPU 3</text>
  </g>
  <g>
    <g>
      <rect x="4" y="192.81" width="140" height="150" rx="8" ry="8" style="fill: rgb(216, 216, 216); stroke: rgb(0, 0, 0);"/>
      <rect x="14" y="202.81" width="120" height="55" rx="5" ry="5" style="stroke: rgb(0, 0, 0); fill: rgb(228, 236, 235);"/>
      <rect x="14" y="277.81" width="120" height="55" rx="5" ry="5" style="stroke: rgb(0, 0, 0); fill: rgb(228, 236, 235);"/>
      <path d="M 115 86.25 H 122.965 L 122.965 85 L 125 87.5 L 122.965 90 L 122.965 88.75 H 115 V 86.25 Z" style="fill: rgb(216, 216, 216); stroke: rgb(0, 0, 0);" transform="matrix(0, 1, -1, 0, 161.5, 147.810074)" bx:shape="arrow 115 85 10 5 2.5 2.035 0 1@c599ae12"/>
      <text style="white-space: pre; fill: rgb(51, 51, 51); font-family: Arial, sans-serif; font-size: 14px;" x="50.656" y="310.069">Layer 4</text>
      <text style="white-space: pre; fill: rgb(51, 51, 51); font-family: Arial, sans-serif; font-size: 13.3px;" x="54.045" y="189.022">GPU 2</text>
    </g>
    <text style="white-space: pre; fill: rgb(51, 51, 51); font-family: Arial, sans-serif; font-size: 14px;" x="50.656" y="235.069">Layer 3</text>
  </g>
  <path d="M 148.773 93.034 H 156.738 L 156.738 91.784 L 158.773 94.284 L 156.738 96.784 L 156.738 95.534 H 148.773 V 93.034 Z" style="fill: rgb(216, 216, 216); stroke: rgb(0, 0, 0);" bx:shape="arrow 148.773 91.784 10 5 2.5 2.035 0 1@ce8e7c48"/>
  <path d="M 148.294 264.518 H 156.259 L 156.259 263.268 L 158.294 265.768 L 156.259 268.268 L 156.259 267.018 H 148.294 V 264.518 Z" style="fill: rgb(216, 216, 216); stroke: rgb(0, 0, 0);" bx:shape="arrow 148.294 263.268 10 5 2.5 2.035 0 1@2ecf7b5f"/>
  <g transform="matrix(1, 0, 0, 1, 0.818458, -1.153332)"/>
  <g>
    <g transform="matrix(1, 0, 0, 1, 114, -32.18993)">
      <g>
        <rect x="50" y="50" width="140" height="150" rx="8" ry="8" style="fill: rgb(216, 216, 216); stroke: rgb(0, 0, 0);"/>
        <g transform="matrix(1, 0, 0, 1, 3.676998, 4)">
          <g transform="matrix(1, 0, 0, 1, 1, 1)">
            <rect x="55.323" y="55.264" width="120" height="130" rx="5" ry="5" style="stroke: rgb(0, 0, 0); fill: rgb(228, 236, 235);"/>
          </g>
          <text style="white-space: pre; fill: rgb(51, 51, 51); font-family: Arial, sans-serif; font-size: 14px;" x="92.979" y="126.023">Layer 2</text>
        </g>
      </g>
      <text style="white-space: pre; fill: rgb(51, 51, 51); font-family: Arial, sans-serif; font-size: 13.3px;" x="100.045" y="46.212">GPU 1</text>
    </g>
  </g>
  <path d="M -163.548 -183.641 H -151.601 L -151.601 -185.391 L -148.548 -181.891 L -151.601 -178.391 L -151.601 -180.141 H -163.548 V -183.641 Z" style="fill: rgb(216, 216, 216); stroke: rgb(0, 0, 0);" transform="matrix(-0.707106, 0.707107, -0.707107, -0.707106, -82.91111, 163.617218)" bx:shape="arrow -163.548 -185.391 15 7 3.5 3.053 0 1@0bf87825"/>
  <g transform="matrix(1, 0, 0, 1, 159.613495, 170.779068)">
    <rect x="26.188" y="66.227" width="96.397" height="61.608" rx="5" ry="5" style="stroke: rgb(0, 0, 0); fill: rgb(250, 255, 185);"/>
    <text style="font-family: Arial, sans-serif; font-size: 9.3px; white-space: pre;" x="58.618" y="100.183">Batch 4</text>
  </g>
</svg>