<?xml version="1.0" encoding="utf-8"?>
<svg viewBox="14.611 26.846 411.601 141.404" xmlns="http://www.w3.org/2000/svg" xmlns:bx="https://boxy-svg.com">
  <rect x="137.719" y="67.313" width="70.796" height="50.841" style="fill: rgb(216, 216, 216); stroke: rgb(0, 0, 0);"/>
  <text style="white-space: pre; fill: rgb(51, 51, 51); font-family: Arial, sans-serif; font-size: 11.1px;" x="142.855" y="97.389">Login nodes</text>
  <g transform="matrix(1, 0, 0, 1, -4.303283104213863, 7.999676655066551)">
    <g transform="matrix(1, 0, 0, 1, -13.394732, -15.930734)">
      <ellipse style="fill: rgb(216, 216, 216); stroke: rgb(0, 0, 0);" cx="45.239" cy="50.858" rx="7.269" ry="7.269"/>
      <rect x="36.384" y="59.371" width="18.009" height="20.352" style="fill: rgb(216, 216, 216); stroke: rgb(0, 0, 0);"/>
    </g>
    <text style="fill: rgb(51, 51, 51); font-family: Arial, sans-serif; font-size: 7.1px; white-space: pre; opacity: 1;" x="23.589" y="70.92">User</text>
  </g>
  <g transform="matrix(1, 0, 0, 1, 89.243011, 1.620239)">
    <rect x="271.757" y="29.34" width="62.376" height="20.993" style="fill: rgb(216, 216, 216); stroke: rgb(0, 0, 0);"/>
    <text style="fill: rgb(51, 51, 51); font-family: Arial, sans-serif; font-size: 8px; white-space: pre;" x="275.871" y="42.659">Compute node</text>
  </g>
  <text style="white-space: pre; fill: rgb(51, 51, 51); font-family: Arial, sans-serif; font-size: 11.1px;" x="423.124" y="75.708"> </text>
  <text style="white-space: pre; fill: rgb(51, 51, 51); font-family: Arial, sans-serif; font-size: 7.8px;" x="171.093" y="163.064"> </text>
  <path fill="rgb(255,0,0)" stroke="rgb(255,0,0)" stroke-width="0" d="M 259.612 42.605 C 261.712 42.07 263.57 42.369 265.49 42.605 C 267.395 42.839 268.579 43.127 271.088 44.004 C 275.068 45.396 284.16 49.074 287.882 51.282 C 290.32 52.729 291.343 53.53 292.78 55.341 C 294.441 57.434 295.807 60.379 296.979 63.458 C 298.292 66.908 299.534 71.814 300.058 75.214 C 300.485 77.984 300.658 79.957 300.338 82.491 C 299.989 85.254 299.16 88.676 297.819 91.168 C 296.545 93.535 294.048 95.921 292.64 97.186 C 291.708 98.024 290.855 97.461 290.261 98.726 C 289.026 101.355 290.287 111.86 289.142 116.36 C 288.276 119.759 286.69 122.132 285.223 124.197 C 283.984 125.94 283.047 126.883 281.164 128.256 C 278.654 130.086 274.376 132.691 270.808 133.854 C 267.37 134.974 263.56 135.378 260.171 135.253 C 256.951 135.134 253.973 134.576 250.935 133.294 C 247.621 131.896 244.355 128.199 241.138 126.856 C 238.301 125.672 235.93 126.346 232.741 125.177 C 228.63 123.67 221.74 119.824 218.466 117.619 C 216.241 116.121 215.051 115.078 213.847 113.561 C 212.706 112.122 211.848 110.608 211.328 108.802 C 210.759 106.826 210.329 104.429 210.768 102.085 C 211.267 99.422 214.662 96.074 214.687 93.687 C 214.708 91.731 212.73 90.589 212.168 88.649 C 211.535 86.462 211.328 83.611 211.328 81.092 C 211.328 78.573 211.399 75.953 212.168 73.534 C 212.958 71.049 214.739 68.023 216.087 66.397 C 217.09 65.187 218.354 65.149 219.165 64.018 C 220.109 62.702 220.149 60.333 221.125 58.699 C 222.133 57.012 224.045 55.143 225.183 54.081 C 225.991 53.328 226.676 53.148 227.283 52.542 C 227.889 51.935 227.997 51.196 228.822 50.442 C 230.025 49.344 232.227 47.519 234.42 46.804 C 236.826 46.018 240.197 45.883 242.817 46.244 C 245.312 46.587 248.375 49.033 249.815 48.763 C 250.758 48.586 250.531 47.528 251.494 46.804 C 253.091 45.601 257.106 43.243 259.612 42.605 Z" style="fill: rgb(166, 209, 48); stroke: rgb(129, 151, 57); stroke-width: 2px;"/>
  <text style="white-space: pre; fill: rgb(51, 51, 51); font-family: Arial, sans-serif; font-size: 11.1px;" x="236.573" y="62.488">Queue</text>
  <text style="white-space: pre; fill: rgb(51, 51, 51); font-family: Arial, sans-serif; font-size: 7.8px;" x="218.8" y="165.721"> </text>
  <rect x="234" y="68.384" width="34.061" height="10.606" style="fill: rgb(216, 216, 216); stroke: rgb(0, 0, 0);"/>
  <text style="white-space: pre; fill: rgb(51, 51, 51); font-family: Arial, sans-serif; font-size: 7.8px;" x="243.604" y="76.051">Job</text>
  <text style="white-space: pre; fill: rgb(51, 51, 51); font-family: Arial, sans-serif; font-size: 7.8px;" x="206.542" y="33.844"> </text>
  <path d="M 416.447 67.509 H 460.286 L 460.286 65.009 L 474.027 70.009 L 460.286 75.009 L 460.286 72.509 H 416.447 V 67.509 Z" style="fill: rgb(216, 216, 216); stroke: rgb(0, 0, 0);" transform="matrix(0.939349, -0.342962, 0.342962, 0.939349, -112.126076, 147.071686)" bx:shape="arrow 416.447 65.009 57.579 10 5 13.741 0 1@bc66f286"/>
  <text style="white-space: pre; fill: rgb(51, 51, 51); font-family: Arial, sans-serif; font-size: 7.8px;" x="304.907" y="54.129" transform="matrix(0.945518, -0.325569, 0.325569, 0.945518, 5.368724, 109.748177)">Job</text>
  <rect x="92.646" y="49.449" width="30.429" height="86.131" style="stroke: rgb(0, 0, 0); fill: rgb(203, 84, 84);"/>
  <text style="white-space: pre; fill: rgb(51, 51, 51); font-family: Arial, sans-serif; font-size: 11.1px;" x="74.144" y="54.155" transform="matrix(0.951057, 0.309017, -0.309017, 0.951057, 11.531202, -24.939377)">SSH</text>
  <path d="M 46.179 48.011 H 129.781 L 129.781 45.511 L 139.781 50.511 L 129.781 55.511 L 129.781 53.011 H 46.179 V 48.011 Z" style="fill: rgb(216, 216, 216); stroke: rgb(0, 0, 0);" transform="matrix(0.959875, 0.280429, -0.280429, 0.959875, 16.017599, -10.92331)" bx:shape="arrow 46.179 45.511 93.602 10 5 10 0 1@eab47505"/>
  <text style="white-space: pre; fill: rgb(51, 51, 51); font-family: Arial, sans-serif; font-size: 6.8px;" x="94.664" y="130.395">Firewall</text>
  <g transform="matrix(1, 0, 0, 1, 9.986531, 1.75802)">
    <g transform="matrix(1, 0, 0, 1, -3.766888337323312, 25.790782083569052)">
      <path stroke="rgb(255,0,0)" stroke-width="0" d="M 391.769 47.367 C 394.107 47.173 397.127 47.597 399.585 48.589 C 402.148 49.622 405.019 51.757 406.791 53.596 C 408.317 55.18 408.915 56.51 409.967 58.726 C 411.362 61.664 413.335 66.914 414.12 70.207 C 414.743 72.824 415.08 74.889 414.853 77.046 C 414.634 79.113 413.767 81.282 412.898 82.909 C 412.131 84.345 411.471 85.275 410.089 86.451 C 408.262 88.006 404.875 90.168 402.272 91.092 C 399.908 91.932 396.52 92.071 395.189 92.069 C 394.527 92.069 394.565 91.712 393.967 91.825 C 392.846 92.037 390.522 94.02 388.593 94.512 C 386.62 95.015 383.135 94.735 382.242 94.756 C 381.922 94.764 382.051 94.747 381.753 94.756 C 381.021 94.78 379.127 95.354 377.112 95.001 C 374.044 94.462 367.906 92.27 364.654 90.359 C 361.96 88.777 359.381 85.874 358.425 84.863 C 358.007 84.421 358.207 84.416 357.815 84.008 C 357.014 83.176 354.289 81.612 353.051 79.978 C 351.797 78.322 350.872 76.348 350.364 74.115 C 349.796 71.615 349.744 68.013 350.12 65.566 C 350.44 63.482 351.139 61.774 352.074 60.192 C 352.986 58.649 353.797 57.664 355.616 56.161 C 358.339 53.912 363.749 49.698 368.074 48.344 C 372.154 47.067 377.556 47.529 380.776 47.856 C 383.092 48.091 384.343 49.387 386.15 49.321 C 388.006 49.254 389.683 47.54 391.769 47.367 Z" style="stroke: rgb(129, 151, 57); stroke-width: 2px; fill: rgb(243, 249, 83);" transform="matrix(1, 0, 0, 1, -0.9298022446093643, -25.426846908253317)"/>
      <text style="white-space: pre; fill: rgb(51, 51, 51); font-family: Arial, sans-serif; font-size: 6.8px; text-anchor: middle;" x="372.541" y="79.134" transform="matrix(1, 0, 0, 1, 8.95387, -38.51049)">Webservice<tspan x="372.5409851074219" dy="1em">​</tspan>(Live plots)<tspan x="372.5409851074219" dy="1em">​</tspan>E.g. Port 5000</text>
    </g>
  </g>
  <g transform="matrix(1, 0, 0, 1, -218.791519, 54.183479)">
    <path stroke="rgb(255,0,0)" stroke-width="0" d="M 400.769 47.367 C 403.107 47.173 406.127 47.597 408.585 48.589 C 411.148 49.622 414.019 51.757 415.791 53.596 C 417.317 55.18 417.915 56.51 418.967 58.726 C 420.362 61.664 422.335 66.914 423.12 70.207 C 423.743 72.824 424.08 74.889 423.853 77.046 C 423.634 79.113 422.767 81.282 421.898 82.909 C 421.131 84.345 420.471 85.275 419.089 86.451 C 417.262 88.006 413.875 90.168 411.272 91.092 C 408.908 91.932 405.52 92.071 404.189 92.069 C 403.527 92.069 403.565 91.712 402.967 91.825 C 401.846 92.037 399.522 94.02 397.593 94.512 C 395.62 95.015 392.135 94.735 391.242 94.756 C 390.922 94.764 391.051 94.747 390.753 94.756 C 390.021 94.78 388.127 95.354 386.112 95.001 C 383.044 94.462 376.906 92.27 373.654 90.359 C 370.96 88.777 368.381 85.874 367.425 84.863 C 367.007 84.421 367.207 84.416 366.815 84.008 C 366.014 83.176 363.289 81.612 362.051 79.978 C 360.797 78.322 359.872 76.348 359.364 74.115 C 358.796 71.615 358.744 68.013 359.12 65.566 C 359.44 63.482 360.139 61.774 361.074 60.192 C 361.986 58.649 362.797 57.664 364.616 56.161 C 367.339 53.912 372.749 49.698 377.074 48.344 C 381.154 47.067 386.556 47.529 389.776 47.856 C 392.092 48.091 393.343 49.387 395.15 49.321 C 397.006 49.254 398.683 47.54 400.769 47.367 Z" style="stroke: rgb(129, 151, 57); stroke-width: 2px; fill: rgb(243, 249, 83);"/>
    <text style="white-space: pre; fill: rgb(51, 51, 51); font-family: Arial, sans-serif; font-size: 6.8px;" x="372.541" y="79.134" transform="matrix(1, 0, 0, 1, -3, -11)">Webservice<tspan x="372.5409851074219" dy="1em">​</tspan>(Data Analysis)<tspan x="372.5409851074219" dy="1em">​</tspan>E.g. Port 3000</text>
  </g>
  <path d="M 48.941 80.209 H 83.704 L 83.704 77.709 L 93.704 82.709 L 83.704 87.709 L 83.704 85.209 H 48.941 V 80.209 Z" style="fill: rgb(216, 216, 216); stroke: rgb(0, 0, 0);" transform="matrix(0.906371, 0.422482, -0.422482, 0.906371, 28.577045, -25.514631)" bx:shape="arrow 48.941 77.709 44.763 10 5 10 0 1@5e163352"/>
  <text style="fill: rgb(51, 51, 51); font-family: Arial, sans-serif; font-size: 6.8px; font-weight: 700; white-space: pre;" transform="matrix(3.667793, 0, 0, 3.847615, -298.216949, -477.660339)"><tspan x="102.789" y="150.582" style="fill: rgb(255, 0, 0);">X</tspan></text>
  <text style="fill: rgb(51, 51, 51); font-family: Arial, sans-serif; font-size: 7px; white-space: pre;" transform="matrix(0.906308, 0.422618, -0.422618, 0.906308, -4.667286, -18.128355)" x="74.144" y="54.155">http://jusuf:3000/</text>
  <path d="M 48.941 80.209 H 83.704 L 83.704 77.709 L 93.704 82.709 L 83.704 87.709 L 83.704 85.209 H 48.941 V 80.209 Z" style="fill: rgb(216, 216, 216); stroke: rgb(0, 0, 0);" transform="matrix(0.906371, 0.422482, -0.422482, 0.906371, 23.905396, 10.141174)" bx:shape="arrow 48.941 77.709 44.763 10 5 10 0 1@5e163352"/>
  <text style="fill: rgb(51, 51, 51); font-family: Arial, sans-serif; font-size: 6.8px; font-weight: 700; white-space: pre;" transform="matrix(3.667793, 0, 0, 3.847615, -302.888611, -442.004547)"><tspan x="102.789" y="150.582" style="fill: rgb(255, 0, 0);">X</tspan></text>
  <text style="fill: rgb(51, 51, 51); font-family: Arial, sans-serif; font-size: 7px; white-space: pre;" transform="matrix(0.906308, 0.422618, -0.422618, 0.906308, -26.961792, 11.891632)" x="74.144" y="54.155">http://jusuf-compute:5000/</text>
</svg>