<?xml version="1.0" encoding="UTF-8" standalone="no"?>
<!-- Created with Inkscape (http://www.inkscape.org/) -->

<svg
   xmlns:dc="http://purl.org/dc/elements/1.1/"
   xmlns:cc="http://creativecommons.org/ns#"
   xmlns:rdf="http://www.w3.org/1999/02/22-rdf-syntax-ns#"
   xmlns:svg="http://www.w3.org/2000/svg"
   xmlns="http://www.w3.org/2000/svg"
   xmlns:sodipodi="http://sodipodi.sourceforge.net/DTD/sodipodi-0.dtd"
   xmlns:inkscape="http://www.inkscape.org/namespaces/inkscape"
   version="1.1"
   id="svg2"
   xml:space="preserve"
   width="487.08078"
   height="182.79259"
   viewBox="0 0 487.08078 182.79259"
   sodipodi:docname="Logo_FZ_Juelich_CMYK_mit_jsc_und_Schutzzone.svg"
   inkscape:version="0.92.2 5c3e80d, 2017-08-06"><metadata
     id="metadata8"><rdf:RDF><cc:Work
         rdf:about=""><dc:format>image/svg+xml</dc:format><dc:type
           rdf:resource="http://purl.org/dc/dcmitype/StillImage" /><dc:title></dc:title></cc:Work></rdf:RDF></metadata><defs
     id="defs6"><clipPath
       clipPathUnits="userSpaceOnUse"
       id="clipPath18"><path
         d="M 0,53.89 H 281.28 V 0 H 0 Z"
         id="path16"
         inkscape:connector-curvature="0" /></clipPath></defs><sodipodi:namedview
     pagecolor="#ffffff"
     bordercolor="#666666"
     borderopacity="1"
     objecttolerance="10"
     gridtolerance="10"
     guidetolerance="10"
     inkscape:pageopacity="0"
     inkscape:pageshadow="2"
     inkscape:window-width="984"
     inkscape:window-height="652"
     id="namedview4"
     showgrid="false"
     inkscape:zoom="1.5347294"
     inkscape:cx="241.53815"
     inkscape:cy="86.444824"
     inkscape:window-x="522"
     inkscape:window-y="294"
     inkscape:window-maximized="0"
     inkscape:current-layer="g10"
     fit-margin-top="0"
     fit-margin-left="0"
     fit-margin-right="0"
     fit-margin-bottom="0" /><g
     id="g10"
     inkscape:groupmode="layer"
     inkscape:label="Logo_FZ_Juelich_CMYK_mit_jsc"
     transform="matrix(1.3333333,0,0,-1.3333333,55.233566,128.53639)"><g
       id="g12"><g
         id="g14"
         clip-path="url(#clipPath18)"><g
           id="g20"
           transform="translate(130.5317,11.1254)"><path
             d="m 0,0 h -2.234 v 0.114 c 0,0.755 0.476,1.21 1.117,1.21 C -0.476,1.324 0,0.88 0,0.125 Z m -1.117,2.276 c -1.242,0 -2.234,-0.91 -2.234,-2.358 v -0.673 c 0,-1.448 0.992,-2.349 2.244,-2.349 0.765,0 1.666,0.374 2.039,1.376 0.019,0.052 0.05,0.115 0.05,0.166 0,0.104 -0.072,0.176 -0.166,0.176 H 0.145 c -0.145,0 -0.207,-0.103 -0.239,-0.144 -0.279,-0.549 -0.661,-0.632 -1.013,-0.632 -0.641,0 -1.127,0.497 -1.127,1.231 v 0.145 h 3.072 c 0.135,0 0.238,0.114 0.238,0.249 v 0.475 c 0,1.386 -0.972,2.338 -2.193,2.338 m -7.047,8.771 v 19.139 c 0,0.51 -0.42,0.93 -0.93,0.93 h -2.49 c -0.51,0 -0.93,-0.42 -0.93,-0.93 V 11.047 c 0,-0.512 0.42,-0.932 0.93,-0.932 h 2.49 c 0.51,0 0.93,0.42 0.93,0.932 m 3.041,-8.874 h -3.414 c -0.135,0 -0.248,-0.113 -0.248,-0.248 V 1.438 c 0,-0.134 0.113,-0.238 0.248,-0.238 h 2.35 L -8.6,-1.883 C -8.722,-2.027 -8.785,-2.1 -8.785,-2.338 V -2.762 C -8.785,-2.896 -8.672,-3 -8.537,-3 h 3.414 c 0.135,0 0.239,0.104 0.239,0.238 v 0.476 c 0,0.135 -0.104,0.248 -0.239,0.248 h -2.389 l 2.473,3.062 c 0.123,0.146 0.155,0.248 0.155,0.404 v 0.497 c 0,0.135 -0.104,0.248 -0.239,0.248 m -8.186,-1.365 c 0,0.434 0.393,0.568 0.838,0.568 0.703,0 0.879,-0.352 0.983,-0.641 0.041,-0.103 0.072,-0.155 0.185,-0.155 h 0.653 c 0.093,0 0.175,0.062 0.175,0.176 0,0.052 -0.009,0.103 -0.019,0.134 -0.156,0.611 -0.652,1.386 -1.936,1.386 -1.023,0 -1.954,-0.444 -1.954,-1.52 0,-2.101 2.937,-1.232 2.937,-2.308 0,-0.475 -0.362,-0.662 -0.951,-0.662 -0.745,0 -0.973,0.425 -1.055,0.693 -0.031,0.104 -0.072,0.167 -0.188,0.167 h -0.64 c -0.103,0 -0.176,-0.074 -0.186,-0.167 -0.012,-0.051 0,-0.113 0.01,-0.144 0.123,-0.704 0.775,-1.439 2.049,-1.439 1.076,0 2.028,0.404 2.028,1.574 0,2.068 -2.929,1.21 -2.929,2.338 m -11.045,1.468 c -0.724,0 -1.147,-0.299 -1.417,-0.703 v 0.352 c 0,0.135 -0.113,0.248 -0.249,0.248 h -0.63 c -0.135,0 -0.239,-0.113 -0.239,-0.248 v -4.687 c 0,-0.134 0.104,-0.238 0.239,-0.238 h 0.63 c 0.136,0 0.249,0.104 0.249,0.238 v 2.804 c 0,0.827 0.455,1.282 1.097,1.282 0.641,0 1.096,-0.455 1.096,-1.282 v -2.804 c 0,-0.134 0.103,-0.238 0.238,-0.238 h 0.631 c 0.135,0 0.248,0.104 0.248,0.238 v 2.68 c 0,1.406 -0.619,2.358 -1.893,2.358 m 6.45,-6.589 h -0.818 c -0.704,0 -0.952,0.279 -0.952,0.723 0,0.456 0.248,0.745 0.952,0.745 h 0.818 c 0.713,0 0.972,-0.289 0.972,-0.745 0,-0.444 -0.259,-0.723 -0.972,-0.723 m -0.539,5.72 h 0.279 c 0.622,0 0.973,-0.383 0.973,-0.91 -0.01,-0.538 -0.371,-0.9 -0.973,-0.9 h -0.279 c -0.61,0 -0.973,0.362 -0.973,0.9 0,0.527 0.363,0.91 0.973,0.91 m 0.746,-3.403 h -1.336 c -0.351,0 -0.506,0.103 -0.506,0.362 0,0.238 0.166,0.372 0.414,0.372 h 1.004 c 1.158,0 1.965,0.621 1.965,1.759 v 2.121 c 0,0.134 -0.103,0.237 -0.239,0.237 h -0.517 c -0.145,0 -0.248,-0.103 -0.248,-0.237 V 1.945 c -0.311,0.228 -0.694,0.331 -1.055,0.331 h -0.26 c -1.168,0 -1.974,-0.682 -1.974,-1.779 0,-0.549 0.207,-0.952 0.662,-1.263 -0.486,-0.113 -0.703,-0.444 -0.703,-0.847 0,-0.352 0.154,-0.642 0.474,-0.786 -0.455,-0.228 -0.703,-0.642 -0.703,-1.191 0,-0.868 0.641,-1.582 1.821,-1.582 h 1.201 c 1.158,0 1.81,0.703 1.81,1.582 0,0.88 -0.652,1.594 -1.81,1.594 m 40.188,4.169 h -0.632 c -0.134,0 -0.238,-0.113 -0.238,-0.248 v -2.804 c 0,-0.828 -0.413,-1.283 -1.055,-1.283 -0.632,0 -1.015,0.455 -1.015,1.283 v 2.804 c 0,0.135 -0.114,0.248 -0.248,0.248 h -0.631 c -0.135,0 -0.238,-0.113 -0.238,-0.248 v -2.68 c 0,-1.448 0.59,-2.349 1.811,-2.349 0.746,0 1.116,0.291 1.376,0.663 V -2.762 C 21.621,-2.896 21.725,-3 21.859,-3 h 0.632 c 0.134,0 0.247,0.104 0.247,0.238 v 4.687 c 0,0.135 -0.113,0.248 -0.247,0.248 M 5.445,2.276 C 4.721,2.276 4.297,1.977 4.028,1.573 v 0.352 c 0,0.135 -0.114,0.248 -0.249,0.248 H 3.149 C 3.014,2.173 2.91,2.06 2.91,1.925 V -2.762 C 2.91,-2.896 3.014,-3 3.149,-3 h 0.63 c 0.135,0 0.249,0.104 0.249,0.238 v 2.804 c 0,0.827 0.454,1.282 1.096,1.282 0.642,0 1.097,-0.455 1.097,-1.282 V -2.762 C 6.221,-2.896 6.324,-3 6.459,-3 H 7.09 c 0.135,0 0.248,0.104 0.248,0.238 v 2.68 c 0,1.406 -0.621,2.358 -1.893,2.358 m -21.859,8.771 v 2.219 c 0,0.509 -0.42,0.929 -0.93,0.929 h -7.98 v 15.991 c 0,0.51 -0.419,0.93 -0.93,0.93 h -2.489 c -0.511,0 -0.931,-0.42 -0.931,-0.93 V 11.047 c 0,-0.512 0.42,-0.932 0.931,-0.932 h 11.399 c 0.51,0 0.93,0.42 0.93,0.932 M 31.4,31.116 h -2.49 c -0.51,0 -0.93,-0.42 -0.93,-0.93 v -7.5 h -7.11 v 7.5 c 0,0.51 -0.42,0.93 -0.93,0.93 h -2.49 c -0.51,0 -0.929,-0.42 -0.929,-0.93 V 11.047 c 0,-0.512 0.419,-0.932 0.929,-0.932 h 2.49 c 0.51,0 0.93,0.42 0.93,0.932 v 7.559 h 7.11 v -7.559 c 0,-0.512 0.42,-0.932 0.93,-0.932 h 2.49 c 0.51,0 0.93,0.42 0.93,0.932 v 19.139 c 0,0.51 -0.42,0.93 -0.93,0.93 M 30.459,2.276 c -0.713,0 -1.251,-0.299 -1.604,-0.838 -0.33,0.59 -0.888,0.838 -1.519,0.838 -0.705,0 -1.098,-0.32 -1.345,-0.693 v 0.342 c 0,0.135 -0.114,0.248 -0.249,0.248 h -0.631 c -0.134,0 -0.237,-0.113 -0.237,-0.248 V -2.762 C 24.874,-2.896 24.977,-3 25.111,-3 h 0.631 c 0.135,0 0.249,0.104 0.249,0.238 v 2.638 c 0,0.838 0.165,1.448 1.044,1.448 0.807,0 0.983,-0.507 0.983,-1.448 V -2.762 C 28.018,-2.896 28.121,-3 28.256,-3 h 0.64 c 0.125,0 0.239,0.104 0.239,0.238 v 2.638 c 0,0.89 0.207,1.448 1.045,1.448 0.838,0 0.982,-0.558 0.982,-1.448 V -2.762 C 31.162,-2.896 31.266,-3 31.4,-3 h 0.631 c 0.135,0 0.248,0.104 0.248,0.238 v 2.534 c 0,1.491 -0.299,2.504 -1.82,2.504 M 11.84,2.173 H 10.795 V 3.27 c 0,0.134 -0.104,0.248 -0.238,0.248 H 9.947 C 9.813,3.518 9.709,3.404 9.709,3.27 V 2.814 C 9.709,2.287 9.502,2.173 8.996,2.173 8.861,2.173 8.758,2.06 8.758,1.925 V 1.428 C 8.758,1.294 8.861,1.19 8.996,1.19 H 9.699 V -1.345 C 9.699,-2.41 10.061,-3 11.303,-3 h 0.537 c 0.135,0 0.248,0.104 0.248,0.238 v 0.528 c 0,0.134 -0.113,0.238 -0.248,0.238 h -0.352 c -0.621,0 -0.693,0.217 -0.693,0.807 V 1.19 h 1.045 c 0.135,0 0.248,0.104 0.248,0.238 v 0.497 c 0,0.135 -0.113,0.248 -0.248,0.248 m 0.097,15.443 H 8.846 c -0.6,0 -0.72,-0.48 -0.78,-0.93 -0.15,-1.44 -1.23,-2.79 -3.42,-2.79 -2.19,0 -3.959,1.62 -3.959,4.71 v 3.96 c 0,3.09 1.769,4.77 3.959,4.77 2.19,0 3.18,-1.47 3.42,-2.91 0.09,-0.6 0.42,-0.81 0.75,-0.81 h 3.06 c 0.45,0 0.69,0.3 0.661,0.75 -0.241,3.63 -3.091,7.05 -7.891,7.05 -4.8,0 -8.31,-3.54 -8.31,-8.79 v -4.02 c 0,-5.251 3.51,-8.79 8.31,-8.79 4.8,0 7.68,3.539 7.95,7.08 0.03,0.33 -0.239,0.72 -0.659,0.72 M 16.529,2.173 h -0.134 c -0.672,0 -1.117,-0.352 -1.375,-0.776 v 0.528 c 0,0.135 -0.104,0.248 -0.239,0.248 h -0.58 c -0.135,0 -0.238,-0.113 -0.238,-0.248 V -2.762 C 13.963,-2.896 14.066,-3 14.201,-3 h 0.621 c 0.136,0 0.248,0.104 0.248,0.238 v 2.338 c 0,0.973 0.446,1.49 1.315,1.49 h 0.144 c 0.135,0 0.249,0.104 0.249,0.238 v 0.621 c 0,0.135 -0.114,0.248 -0.249,0.248 m -52.074,28.943 h -2.49 c -0.51,0 -0.93,-0.42 -0.93,-0.93 v -11.88 c 0,-3.089 -1.5,-4.41 -3.63,-4.41 -2.13,0 -3.57,1.321 -3.57,4.41 v 11.88 c 0,0.51 -0.419,0.93 -0.93,0.93 h -2.489 c -0.511,0 -0.931,-0.42 -0.931,-0.93 v -11.88 c 0,-5.249 3.181,-8.49 7.92,-8.49 4.741,0 7.98,3.241 7.98,8.49 v 11.88 c 0,0.51 -0.42,0.93 -0.93,0.93 M -62.958,4.242 h -4.035 c -0.134,0 -0.237,-0.114 -0.237,-0.248 v -6.756 c 0,-0.134 0.103,-0.238 0.237,-0.238 h 0.631 c 0.134,0 0.248,0.104 0.248,0.238 v 2.649 h 2.493 c 0.135,0 0.249,0.103 0.249,0.238 v 0.559 c 0,0.133 -0.114,0.248 -0.249,0.248 h -2.493 v 2.265 h 3.156 c 0.134,0 0.249,0.104 0.249,0.239 v 0.558 c 0,0.134 -0.115,0.248 -0.249,0.248 m 4.533,-5.121 c 0,-0.828 -0.466,-1.283 -1.117,-1.283 -0.632,0 -1.108,0.455 -1.108,1.283 v 0.921 c 0,0.827 0.476,1.282 1.108,1.282 0.651,0 1.117,-0.455 1.117,-1.282 z m -1.117,3.155 c -1.242,0 -2.225,-0.91 -2.225,-2.358 v -0.673 c 0,-1.448 0.983,-2.349 2.225,-2.349 1.251,0 2.234,0.901 2.234,2.349 v 0.673 c 0,1.448 -0.983,2.358 -2.234,2.358 m 4.393,27.91 c 0,0.51 -0.42,0.93 -0.93,0.93 h -2.49 c -0.51,0 -0.93,-0.42 -0.93,-0.93 v -13.56 c 0,-1.89 -1.469,-2.73 -2.55,-2.73 -1.08,0 -2.52,0.84 -2.52,2.73 v 0.27 c 0,0.51 -0.42,0.93 -0.93,0.93 h -2.4 c -0.51,0 -0.93,-0.42 -0.93,-0.93 v -0.21 c 0,-4.35 3.361,-6.87 6.78,-6.87 3.48,0 6.9,2.52 6.9,6.87 z M -93.887,14.834 c -4.442,-11.5 -15.062,-15.816 -24.746,-14.154 2.22,-2.301 4.959,-4.17 8.14,-5.399 11.678,-4.513 24.805,1.297 29.317,12.977 3.436,8.893 0.882,18.622 -5.687,24.752 z m 54.622,18.112 c 1.29,0 2.161,0.87 2.161,2.16 0,1.29 -0.871,2.16 -2.161,2.16 -1.29,0 -2.16,-0.87 -2.16,-2.16 0,-1.29 0.87,-2.16 2.16,-2.16 m -68.038,-13.143 7.407,19.169 c -9.201,0.995 -18.292,-3.76 -22.607,-12.207 -0.014,-0.041 -0.018,-0.083 -0.034,-0.124 l -0.319,-0.828 c -2.241,-5.798 1.179,-10.083 4.495,-11.364 3.31,-1.279 8.819,-0.443 11.058,5.354 m 61.739,13.143 c 1.289,0 2.159,0.87 2.159,2.16 0,1.29 -0.87,2.16 -2.159,2.16 -1.291,0 -2.161,-0.87 -2.161,-2.16 0,-1.29 0.87,-2.16 2.161,-2.16 m 1.971,-31.622 c 0.611,0 0.941,-0.372 1.075,-0.91 0.01,-0.072 0.073,-0.155 0.176,-0.155 h 0.716 c 0.091,0 0.154,0.072 0.154,0.166 0,0.041 0,0.083 -0.02,0.134 -0.219,0.952 -0.973,1.717 -2.101,1.717 -1.231,0 -2.204,-0.91 -2.204,-2.358 v -0.673 c 0,-1.448 0.973,-2.349 2.204,-2.349 1.292,0 1.976,0.953 2.101,1.667 0.01,0.051 0.02,0.124 0.02,0.165 0,0.093 -0.073,0.166 -0.176,0.166 h -0.713 c -0.084,0 -0.147,-0.041 -0.166,-0.145 -0.135,-0.61 -0.496,-0.911 -1.066,-0.911 -0.641,0 -1.117,0.455 -1.117,1.283 v 0.921 c 0,0.827 0.476,1.282 1.117,1.282 m 14.302,0.849 h -0.631 c -0.135,0 -0.238,-0.113 -0.238,-0.248 v -2.804 c 0,-0.828 -0.414,-1.283 -1.055,-1.283 -0.631,0 -1.014,0.455 -1.014,1.283 v 2.804 c 0,0.135 -0.113,0.248 -0.247,0.248 h -0.631 c -0.135,0 -0.239,-0.113 -0.239,-0.248 v -2.68 c 0,-1.448 0.591,-2.349 1.811,-2.349 0.744,0 1.118,0.291 1.375,0.663 v -0.321 c 0,-0.134 0.103,-0.238 0.238,-0.238 h 0.631 c 0.135,0 0.249,0.104 0.249,0.238 v 4.687 c 0,0.135 -0.114,0.248 -0.249,0.248 m -7.968,0.103 c -0.735,0 -1.158,-0.299 -1.429,-0.693 v 2.411 c 0,0.134 -0.113,0.248 -0.248,0.248 h -0.63 c -0.135,0 -0.239,-0.114 -0.239,-0.248 v -6.756 c 0,-0.134 0.104,-0.238 0.239,-0.238 h 0.63 c 0.135,0 0.248,0.104 0.248,0.238 v 2.804 c 0,0.827 0.456,1.282 1.098,1.282 0.641,0 1.096,-0.455 1.096,-1.282 v -2.804 c 0,-0.134 0.103,-0.238 0.239,-0.238 h 0.63 c 0.135,0 0.249,0.104 0.249,0.238 v 2.68 c 0,1.406 -0.61,2.358 -1.883,2.358 M -50.227,0.808 c 0,0.434 0.393,0.568 0.838,0.568 0.703,0 0.88,-0.352 0.982,-0.641 0.042,-0.103 0.073,-0.155 0.187,-0.155 h 0.652 c 0.092,0 0.175,0.062 0.175,0.176 0,0.052 -0.01,0.103 -0.021,0.134 -0.154,0.611 -0.651,1.386 -1.934,1.386 -1.024,0 -1.955,-0.444 -1.955,-1.52 0,-2.101 2.938,-1.232 2.938,-2.308 0,-0.475 -0.362,-0.662 -0.952,-0.662 -0.745,0 -0.972,0.425 -1.055,0.693 -0.031,0.104 -0.072,0.167 -0.186,0.167 H -51.2 c -0.103,0 -0.175,-0.074 -0.186,-0.167 -0.01,-0.051 0,-0.113 0.011,-0.144 0.124,-0.704 0.775,-1.439 2.048,-1.439 1.076,0 2.028,0.404 2.028,1.574 0,2.068 -2.928,1.21 -2.928,2.338 m -2.774,1.365 h -0.135 c -0.673,0 -1.117,-0.352 -1.376,-0.776 v 0.528 c 0,0.135 -0.103,0.248 -0.238,0.248 h -0.579 c -0.134,0 -0.238,-0.113 -0.238,-0.248 v -4.687 c 0,-0.134 0.104,-0.238 0.238,-0.238 h 0.621 c 0.134,0 0.248,0.104 0.248,0.238 v 2.338 c 0,0.973 0.445,1.49 1.314,1.49 h 0.145 c 0.134,0 0.248,0.104 0.248,0.238 v 0.621 c 0,0.135 -0.114,0.248 -0.248,0.248"
             style="fill:#07375e;fill-opacity:1;fill-rule:nonzero;stroke:none"
             id="path22"
             inkscape:connector-curvature="0" /></g><g
           id="g24"
           transform="translate(187.4185,42.2484)"><path
             d="m 0,0 c 0.11,0 0.198,-0.088 0.198,-0.198 v -5.248 c 0,-1.518 -1.034,-2.365 -2.222,-2.365 -1.134,0 -2.201,0.847 -2.201,2.365 v 0.242 c 0,0.11 0.078,0.187 0.187,0.187 h 0.452 c 0.109,0 0.187,-0.077 0.187,-0.187 v -0.264 c 0,-1.056 0.66,-1.562 1.375,-1.562 0.726,0 1.386,0.506 1.386,1.562 v 5.27 c 0,0.11 0.077,0.198 0.176,0.198 z"
             style="fill:#07375e;fill-opacity:1;fill-rule:nonzero;stroke:none"
             id="path26"
             inkscape:connector-curvature="0" /></g><g
           id="g28"
           transform="translate(192.3691,43.6893)"><path
             d="M 0,0 C 0,0.319 0.209,0.528 0.528,0.528 0.836,0.528 1.056,0.319 1.056,0 1.056,-0.319 0.836,-0.528 0.528,-0.528 0.209,-0.528 0,-0.319 0,0 m -1.915,0 c 0,0.319 0.209,0.528 0.529,0.528 0.308,0 0.528,-0.209 0.528,-0.528 0,-0.319 -0.22,-0.528 -0.528,-0.528 -0.32,0 -0.529,0.209 -0.529,0.528 m 3.994,-1.441 c 0.11,0 0.187,-0.088 0.187,-0.198 v -4.643 c 0,-1.826 -1.111,-2.97 -2.706,-2.97 -1.584,0 -2.706,1.144 -2.706,2.97 v 4.643 c 0,0.11 0.077,0.198 0.175,0.198 h 0.463 c 0.11,0 0.197,-0.088 0.197,-0.198 v -4.643 c 0,-1.408 0.782,-2.189 1.871,-2.189 1.089,0 1.87,0.781 1.87,2.189 v 4.643 c 0,0.11 0.077,0.198 0.187,0.198 z"
             style="fill:#07375e;fill-opacity:1;fill-rule:nonzero;stroke:none"
             id="path30"
             inkscape:connector-curvature="0" /></g><g
           id="g32"
           transform="translate(201.2241,34.7235)"><path
             d="M 0,0 C 0,-0.11 -0.088,-0.176 -0.187,-0.176 H -4.653 C -4.752,-0.176 -4.83,-0.11 -4.83,0 v 7.327 c 0,0.11 0.078,0.198 0.177,0.198 h 0.462 c 0.109,0 0.198,-0.088 0.198,-0.198 V 0.605 h 3.806 C -0.088,0.605 0,0.517 0,0.407 Z"
             style="fill:#07375e;fill-opacity:1;fill-rule:nonzero;stroke:none"
             id="path34"
             inkscape:connector-curvature="0" /></g><g
           id="g36"
           transform="translate(202.6318,34.5472)"><path
             d="m 0,0 c -0.099,0 -0.176,0.066 -0.176,0.176 v 7.327 c 0,0.11 0.077,0.198 0.176,0.198 h 0.462 c 0.11,0 0.198,-0.088 0.198,-0.198 V 0.176 C 0.66,0.066 0.572,0 0.462,0 Z"
             style="fill:#07375e;fill-opacity:1;fill-rule:nonzero;stroke:none"
             id="path38"
             inkscape:connector-curvature="0" /></g><g
           id="g40"
           transform="translate(210.3652,37.1327)"><path
             d="m 0,0 c 0.066,0 0.132,-0.055 0.121,-0.132 -0.077,-1.364 -1.155,-2.563 -2.75,-2.563 -1.596,0 -2.839,1.177 -2.839,2.992 v 1.925 c 0,1.838 1.221,3.004 2.828,3.004 1.595,0 2.596,-1.122 2.761,-2.454 C 0.132,2.64 0.066,2.596 -0.033,2.596 h -0.561 c -0.066,0 -0.121,0.044 -0.143,0.176 -0.143,0.892 -0.814,1.662 -1.903,1.662 -1.1,0 -1.981,-0.814 -1.981,-2.223 V 0.297 c 0,-1.397 0.892,-2.212 1.992,-2.212 1.078,0 1.782,0.727 1.903,1.772 C -0.704,-0.055 -0.66,0 -0.583,0 Z"
             style="fill:#07375e;fill-opacity:1;fill-rule:nonzero;stroke:none"
             id="path42"
             inkscape:connector-curvature="0" /></g><g
           id="g44"
           transform="translate(216.7891,34.5472)"><path
             d="M 0,0 C -0.099,0 -0.176,0.066 -0.176,0.176 V 3.554 H -3.905 V 0.176 C -3.905,0.066 -3.994,0 -4.104,0 h -0.461 c -0.1,0 -0.177,0.066 -0.177,0.176 v 7.327 c 0,0.11 0.077,0.198 0.177,0.198 h 0.461 c 0.11,0 0.199,-0.088 0.199,-0.198 V 4.334 h 3.729 v 3.169 c 0,0.11 0.077,0.198 0.176,0.198 h 0.462 c 0.11,0 0.198,-0.088 0.198,-0.198 V 0.176 C 0.66,0.066 0.572,0 0.462,0 Z"
             style="fill:#07375e;fill-opacity:1;fill-rule:nonzero;stroke:none"
             id="path46"
             inkscape:connector-curvature="0" /></g><g
           id="g48"
           transform="translate(188.1782,26.9691)"><path
             d="m 0,0 c -0.11,0 -0.165,0.055 -0.187,0.165 -0.044,0.671 -0.363,1.266 -1.639,1.266 -1.001,0 -1.705,-0.264 -1.705,-1.277 0,-2.222 4.367,-0.847 4.367,-3.751 0,-1.573 -1.353,-2.134 -2.651,-2.134 -2.08,0 -2.795,1.44 -2.795,2.354 0,0.11 0.077,0.187 0.188,0.187 h 0.472 c 0.111,0 0.177,-0.088 0.187,-0.176 0.012,-0.484 0.342,-1.617 1.959,-1.617 1.034,0 1.815,0.374 1.815,1.386 0,2.046 -4.379,0.726 -4.379,3.751 0,1.419 1.056,2.035 2.542,2.035 1.969,0 2.475,-1.199 2.475,-2.013 C 0.649,0.077 0.561,0 0.462,0 Z"
             style="fill:#07375e;fill-opacity:1;fill-rule:nonzero;stroke:none"
             id="path50"
             inkscape:connector-curvature="0" /></g><g
           id="g52"
           transform="translate(195.625,29.0487)"><path
             d="m 0,0 c 0.11,0 0.187,-0.088 0.187,-0.198 v -4.643 c 0,-1.826 -1.111,-2.97 -2.706,-2.97 -1.585,0 -2.707,1.144 -2.707,2.97 v 4.643 c 0,0.11 0.078,0.198 0.176,0.198 h 0.463 c 0.109,0 0.197,-0.088 0.197,-0.198 v -4.643 c 0,-1.408 0.782,-2.189 1.871,-2.189 1.089,0 1.87,0.781 1.87,2.189 v 4.643 c 0,0.11 0.077,0.198 0.187,0.198 z"
             style="fill:#07375e;fill-opacity:1;fill-rule:nonzero;stroke:none"
             id="path54"
             inkscape:connector-curvature="0" /></g><g
           id="g56"
           transform="translate(198.4077,25.0218)"><path
             d="m 0,0 h 1.936 c 0.825,0 1.573,0.462 1.573,1.541 v 0.23 c 0,1.09 -0.748,1.464 -1.573,1.464 H 0 Z M 0,-0.781 V -3.499 C 0,-3.608 -0.088,-3.674 -0.198,-3.674 H -0.66 c -0.099,0 -0.176,0.066 -0.176,0.175 v 7.328 c 0,0.11 0.077,0.198 0.176,0.198 h 2.629 c 1.419,0 2.376,-0.781 2.376,-2.244 V 1.562 c 0,-1.463 -0.957,-2.343 -2.376,-2.343 z"
             style="fill:#07375e;fill-opacity:1;fill-rule:nonzero;stroke:none"
             id="path58"
             inkscape:connector-curvature="0" /></g><g
           id="g60"
           transform="translate(208.8911,28.4437)"><path
             d="m 0,0 c 0,-0.11 -0.088,-0.187 -0.198,-0.187 h -3.719 v -2.629 h 2.982 c 0.11,0 0.187,-0.078 0.187,-0.187 v -0.408 c 0,-0.11 -0.077,-0.187 -0.187,-0.187 h -2.982 v -2.717 h 3.719 C -0.088,-6.315 0,-6.403 0,-6.502 V -6.92 c 0,-0.11 -0.088,-0.176 -0.198,-0.176 h -4.379 c -0.099,0 -0.176,0.066 -0.176,0.176 v 7.327 c 0,0.11 0.077,0.198 0.176,0.198 h 4.379 C -0.088,0.605 0,0.517 0,0.407 Z"
             style="fill:#07375e;fill-opacity:1;fill-rule:nonzero;stroke:none"
             id="path62"
             inkscape:connector-curvature="0" /></g><g
           id="g64"
           transform="translate(211.1567,25.2421)"><path
             d="m 0,0 h 1.936 c 0.825,0 1.573,0.451 1.573,1.408 v 0.176 c 0,1.089 -0.748,1.431 -1.573,1.431 L 0,3.015 Z m 0,-3.719 c 0,-0.11 -0.088,-0.176 -0.198,-0.176 H -0.66 c -0.099,0 -0.176,0.066 -0.176,0.176 v 7.327 c 0,0.111 0.077,0.199 0.176,0.199 h 2.629 c 1.419,0 2.376,-0.748 2.376,-2.212 V 1.43 c 0,-0.979 -0.517,-1.782 -1.65,-2.079 L 4.279,-3.62 c 0.033,-0.066 0.055,-0.109 0.055,-0.153 0,-0.078 -0.055,-0.122 -0.132,-0.122 H 3.597 c -0.11,0 -0.165,0.066 -0.209,0.144 l -1.54,2.97 H 0 Z"
             style="fill:#07375e;fill-opacity:1;fill-rule:nonzero;stroke:none"
             id="path66"
             inkscape:connector-curvature="0" /></g><g
           id="g68"
           transform="translate(222.2227,23.933)"><path
             d="m 0,0 c 0.066,0 0.132,-0.055 0.121,-0.132 -0.077,-1.364 -1.155,-2.563 -2.75,-2.563 -1.596,0 -2.839,1.177 -2.839,2.992 v 1.925 c 0,1.838 1.221,3.004 2.828,3.004 1.595,0 2.596,-1.122 2.761,-2.454 C 0.132,2.64 0.066,2.596 -0.033,2.596 h -0.561 c -0.066,0 -0.121,0.044 -0.143,0.176 -0.143,0.892 -0.814,1.662 -1.903,1.662 -1.1,0 -1.981,-0.814 -1.981,-2.223 V 0.297 c 0,-1.397 0.892,-2.212 1.992,-2.212 1.078,0 1.782,0.727 1.903,1.772 C -0.704,-0.055 -0.66,0 -0.583,0 Z"
             style="fill:#07375e;fill-opacity:1;fill-rule:nonzero;stroke:none"
             id="path70"
             inkscape:connector-curvature="0" /></g><g
           id="g72"
           transform="translate(224.4878,24.2298)"><path
             d="m 0,0 c 0,-1.397 0.891,-2.211 1.991,-2.211 1.079,0 1.981,0.814 1.981,2.211 V 1.903 C 3.972,3.312 3.07,4.137 1.98,4.137 0.88,4.137 0,3.312 0,1.903 Z m -0.847,1.915 c 0,1.836 1.221,3.014 2.827,3.014 1.596,0 2.828,-1.178 2.828,-3.014 V 0 c 0,-1.815 -1.222,-2.992 -2.817,-2.992 -1.595,0 -2.838,1.177 -2.838,2.992 z"
             style="fill:#07375e;fill-opacity:1;fill-rule:nonzero;stroke:none"
             id="path74"
             inkscape:connector-curvature="0" /></g><g
           id="g76"
           transform="translate(231.0879,21.3475)"><path
             d="m 0,0 c -0.099,0 -0.176,0.066 -0.176,0.176 v 7.327 c 0,0.11 0.077,0.198 0.176,0.198 h 0.88 c 0.099,0 0.143,-0.055 0.176,-0.11 L 3.487,1.133 5.941,7.58 C 5.974,7.657 6.018,7.701 6.095,7.701 H 6.953 C 7.052,7.701 7.14,7.613 7.14,7.503 V 0.176 C 7.14,0.066 7.052,0 6.953,0 H 6.502 C 6.392,0 6.326,0.066 6.326,0.176 V 6.524 L 3.873,0.121 C 3.839,0.044 3.784,0 3.696,0 H 3.267 C 3.157,0 3.125,0.044 3.091,0.121 L 0.627,6.524 V 0.176 C 0.627,0.066 0.55,0 0.44,0 Z"
             style="fill:#07375e;fill-opacity:1;fill-rule:nonzero;stroke:none"
             id="path78"
             inkscape:connector-curvature="0" /></g><g
           id="g80"
           transform="translate(240.9331,25.0218)"><path
             d="m 0,0 h 1.936 c 0.825,0 1.573,0.462 1.573,1.541 v 0.23 c 0,1.09 -0.748,1.464 -1.573,1.464 H 0 Z M 0,-0.781 V -3.499 C 0,-3.608 -0.088,-3.674 -0.198,-3.674 H -0.66 c -0.099,0 -0.176,0.066 -0.176,0.175 v 7.328 c 0,0.11 0.077,0.198 0.176,0.198 h 2.629 c 1.419,0 2.376,-0.781 2.376,-2.244 V 1.562 c 0,-1.463 -0.957,-2.343 -2.376,-2.343 z"
             style="fill:#07375e;fill-opacity:1;fill-rule:nonzero;stroke:none"
             id="path82"
             inkscape:connector-curvature="0" /></g><g
           id="g84"
           transform="translate(251.7793,29.0487)"><path
             d="m 0,0 c 0.11,0 0.187,-0.088 0.187,-0.198 v -4.643 c 0,-1.826 -1.111,-2.97 -2.707,-2.97 -1.584,0 -2.706,1.144 -2.706,2.97 v 4.643 c 0,0.11 0.078,0.198 0.176,0.198 h 0.462 c 0.11,0 0.198,-0.088 0.198,-0.198 v -4.643 c 0,-1.408 0.782,-2.189 1.87,-2.189 1.089,0 1.871,0.781 1.871,2.189 v 4.643 c 0,0.11 0.077,0.198 0.187,0.198 z"
             style="fill:#07375e;fill-opacity:1;fill-rule:nonzero;stroke:none"
             id="path86"
             inkscape:connector-curvature="0" /></g><g
           id="g88"
           transform="translate(253.0107,28.8504)"><path
             d="M 0,0 C 0,0.11 0.076,0.198 0.187,0.198 H 5.644 C 5.753,0.198 5.842,0.11 5.842,0 v -0.407 c 0,-0.11 -0.089,-0.187 -0.198,-0.187 H 3.333 v -6.733 c 0,-0.11 -0.077,-0.176 -0.187,-0.176 H 2.684 c -0.11,0 -0.176,0.066 -0.176,0.176 v 6.733 H 0.187 C 0.076,-0.594 0,-0.517 0,-0.407 Z"
             style="fill:#07375e;fill-opacity:1;fill-rule:nonzero;stroke:none"
             id="path90"
             inkscape:connector-curvature="0" /></g><g
           id="g92"
           transform="translate(260.1826,21.3475)"><path
             d="m 0,0 c -0.1,0 -0.177,0.066 -0.177,0.176 v 7.327 c 0,0.11 0.077,0.198 0.177,0.198 H 0.462 C 0.571,7.701 0.66,7.613 0.66,7.503 V 0.176 C 0.66,0.066 0.571,0 0.462,0 Z"
             style="fill:#07375e;fill-opacity:1;fill-rule:nonzero;stroke:none"
             id="path94"
             inkscape:connector-curvature="0" /></g><g
           id="g96"
           transform="translate(263.3389,21.3475)"><path
             d="m 0,0 h -0.45 c -0.1,0 -0.177,0.066 -0.177,0.176 v 7.327 c 0,0.11 0.077,0.198 0.177,0.198 H 0.1 c 0.121,0 0.175,-0.088 0.219,-0.154 L 4.093,1.573 v 5.93 c 0,0.11 0.066,0.198 0.177,0.198 h 0.45 c 0.11,0 0.187,-0.088 0.187,-0.198 V 0.176 C 4.907,0.066 4.83,0 4.72,0 H 4.346 C 4.27,0 4.17,0 4.049,0.209 L 0.187,6.304 V 0.176 C 0.187,0.066 0.11,0 0,0"
             style="fill:#07375e;fill-opacity:1;fill-rule:nonzero;stroke:none"
             id="path98"
             inkscape:connector-curvature="0" /></g><g
           id="g100"
           transform="translate(272.7666,24.494)"><path
             d="m 0,0 c -0.11,0 -0.187,0.066 -0.187,0.176 v 0.396 c 0,0.11 0.077,0.187 0.187,0.187 h 2.509 c 0.109,0 0.186,-0.077 0.186,-0.187 v -3.543 c 0,-0.11 -0.077,-0.175 -0.186,-0.175 H 2.112 c -0.11,0 -0.175,0.065 -0.175,0.175 V -2.2 c -0.375,-0.65 -1.156,-1.056 -2.025,-1.056 -1.782,0 -2.816,1.364 -2.816,2.992 V 1.65 c 0,1.837 1.232,3.015 2.838,3.015 1.595,0 2.519,-1.079 2.751,-2.332 0.01,-0.1 0.01,-0.133 0.01,-0.177 0,-0.077 -0.044,-0.121 -0.109,-0.121 H 1.991 c -0.077,0 -0.121,0.055 -0.142,0.176 -0.1,0.792 -0.748,1.662 -1.915,1.662 -1.1,0 -1.992,-0.826 -1.992,-2.234 v -1.903 c 0,-1.397 0.892,-2.212 2.003,-2.212 1.365,0 1.937,1.145 1.937,1.904 V 0 Z"
             style="fill:#07375e;fill-opacity:1;fill-rule:nonzero;stroke:none"
             id="path102"
             inkscape:connector-curvature="0" /></g><g
           id="g104"
           transform="translate(189.1792,10.7328)"><path
             d="m 0,0 c 0.066,0 0.132,-0.055 0.121,-0.132 -0.077,-1.364 -1.155,-2.563 -2.75,-2.563 -1.596,0 -2.839,1.177 -2.839,2.992 v 1.925 c 0,1.838 1.221,3.004 2.828,3.004 1.595,0 2.596,-1.122 2.761,-2.454 C 0.132,2.64 0.066,2.596 -0.033,2.596 h -0.561 c -0.066,0 -0.121,0.044 -0.143,0.176 -0.143,0.892 -0.814,1.662 -1.903,1.662 -1.1,0 -1.981,-0.814 -1.981,-2.223 V 0.297 c 0,-1.397 0.892,-2.212 1.992,-2.212 1.078,0 1.782,0.727 1.903,1.772 C -0.704,-0.055 -0.66,0 -0.583,0 Z"
             style="fill:#07375e;fill-opacity:1;fill-rule:nonzero;stroke:none"
             id="path106"
             inkscape:connector-curvature="0" /></g><g
           id="g108"
           transform="translate(195.6143,15.2435)"><path
             d="m 0,0 c 0,-0.11 -0.088,-0.187 -0.198,-0.187 h -3.719 v -2.629 h 2.981 c 0.111,0 0.188,-0.078 0.188,-0.187 v -0.408 c 0,-0.11 -0.077,-0.187 -0.188,-0.187 h -2.981 v -2.717 h 3.719 C -0.088,-6.315 0,-6.403 0,-6.502 V -6.92 c 0,-0.11 -0.088,-0.176 -0.198,-0.176 h -4.379 c -0.099,0 -0.176,0.066 -0.176,0.176 v 7.327 c 0,0.11 0.077,0.198 0.176,0.198 h 4.379 C -0.088,0.605 0,0.517 0,0.407 Z"
             style="fill:#07375e;fill-opacity:1;fill-rule:nonzero;stroke:none"
             id="path110"
             inkscape:connector-curvature="0" /></g><g
           id="g112"
           transform="translate(197.6704,8.1473)"><path
             d="M 0,0 H -0.451 C -0.55,0 -0.627,0.066 -0.627,0.176 v 7.327 c 0,0.11 0.077,0.198 0.176,0.198 h 0.55 c 0.121,0 0.176,-0.088 0.22,-0.154 L 4.093,1.573 v 5.93 c 0,0.11 0.066,0.198 0.176,0.198 H 4.72 c 0.11,0 0.187,-0.088 0.187,-0.198 V 0.176 C 4.907,0.066 4.83,0 4.72,0 H 4.346 C 4.269,0 4.17,0 4.049,0.209 L 0.187,6.304 V 0.176 C 0.187,0.066 0.11,0 0,0"
             style="fill:#07375e;fill-opacity:1;fill-rule:nonzero;stroke:none"
             id="path114"
             inkscape:connector-curvature="0" /></g><g
           id="g116"
           transform="translate(203.7427,15.6503)"><path
             d="M 0,0 C 0,0.11 0.077,0.198 0.187,0.198 H 5.644 C 5.753,0.198 5.842,0.11 5.842,0 v -0.407 c 0,-0.11 -0.089,-0.187 -0.198,-0.187 H 3.333 v -6.733 c 0,-0.11 -0.077,-0.176 -0.187,-0.176 H 2.684 c -0.11,0 -0.176,0.066 -0.176,0.176 v 6.733 H 0.187 C 0.077,-0.594 0,-0.517 0,-0.407 Z"
             style="fill:#07375e;fill-opacity:1;fill-rule:nonzero;stroke:none"
             id="path118"
             inkscape:connector-curvature="0" /></g><g
           id="g120"
           transform="translate(211.5747,12.0419)"><path
             d="m 0,0 h 1.936 c 0.825,0 1.573,0.451 1.573,1.408 v 0.176 c 0,1.089 -0.748,1.431 -1.573,1.431 L 0,3.015 Z m 0,-3.719 c 0,-0.11 -0.088,-0.176 -0.198,-0.176 H -0.66 c -0.099,0 -0.176,0.066 -0.176,0.176 v 7.327 c 0,0.111 0.077,0.199 0.176,0.199 h 2.629 c 1.419,0 2.376,-0.748 2.376,-2.212 V 1.43 c 0,-0.979 -0.517,-1.782 -1.65,-2.079 L 4.279,-3.62 c 0.033,-0.066 0.055,-0.109 0.055,-0.153 0,-0.078 -0.055,-0.122 -0.132,-0.122 H 3.597 c -0.11,0 -0.165,0.066 -0.209,0.144 l -1.54,2.97 H 0 Z"
             style="fill:#07375e;fill-opacity:1;fill-rule:nonzero;stroke:none"
             id="path122"
             inkscape:connector-curvature="0" /></g><g
           id="g124"
           transform="translate(222.1899,15.2435)"><path
             d="m 0,0 c 0,-0.11 -0.088,-0.187 -0.198,-0.187 h -3.719 v -2.629 h 2.982 c 0.11,0 0.187,-0.078 0.187,-0.187 v -0.408 c 0,-0.11 -0.077,-0.187 -0.187,-0.187 h -2.982 v -2.717 h 3.719 C -0.088,-6.315 0,-6.403 0,-6.502 V -6.92 c 0,-0.11 -0.088,-0.176 -0.198,-0.176 h -4.379 c -0.099,0 -0.176,0.066 -0.176,0.176 v 7.327 c 0,0.11 0.077,0.198 0.176,0.198 h 4.379 C -0.088,0.605 0,0.517 0,0.407 Z"
             style="fill:#07375e;fill-opacity:1;fill-rule:nonzero;stroke:none"
             id="path126"
             inkscape:connector-curvature="0" /></g><g
           id="g128"
           transform="translate(173.0127,50.2235)"><path
             d="M 0,0 -0.003,-45.357"
             style="fill:none;stroke:#07375e;stroke-width:0.80000001;stroke-linecap:butt;stroke-linejoin:miter;stroke-miterlimit:10;stroke-dasharray:none;stroke-opacity:1"
             id="path130"
             inkscape:connector-curvature="0" /></g></g></g></g></svg>